<?xml version="1.0" standalone="no"?>
<!DOCTYPE svg PUBLIC "-//W3C//DTD SVG 20010904//EN"
 "http://www.w3.org/TR/2001/REC-SVG-20010904/DTD/svg10.dtd">
<svg version="1.0" xmlns="http://www.w3.org/2000/svg"
 width="908.000000pt" height="908.000000pt" viewBox="0 0 908.000000 908.000000"
 preserveAspectRatio="xMidYMid meet">
<metadata>
Created by potrace 1.14, written by Peter Selinger 2001-2017
</metadata>
<g transform="translate(0.000000,908.000000) scale(0.100000,-0.100000)"
fill="#000000" stroke="none">
<path d="M4685 7328 c-55 -6 -101 -11 -102 -12 -4 -3 68 -221 75 -228 6 -5
373 10 379 16 1 1 -15 54 -34 119 l-37 117 -90 -1 c-50 -1 -136 -6 -191 -11z"/>
<path d="M6487 7018 c-11 -142 -9 -179 11 -184 9 -3 94 -34 187 -69 94 -35
173 -61 176 -57 4 4 9 64 13 134 l6 126 -72 30 c-72 30 -289 102 -306 102 -5
0 -12 -37 -15 -82z"/>
<path d="M3055 6874 c-77 -42 -146 -81 -152 -88 -10 -9 7 -41 77 -146 50 -74
95 -134 101 -132 5 1 29 14 52 29 23 14 88 52 144 83 l103 57 -90 137 c-49 75
-91 136 -92 136 -2 0 -66 -34 -143 -76z"/>
<path d="M4780 6929 c-167 -12 -326 -37 -480 -75 -933 -228 -1971 -989 -2721
-1994 -609 -816 -1108 -1962 -1274 -2927 -14 -79 -25 -148 -25 -154 0 -5 603
-9 1581 -9 l1581 0 -6 23 c-29 118 -64 436 -76 703 -39 837 138 1630 493 2207
302 491 727 849 1292 1085 793 332 1624 301 2555 -95 341 -146 807 -415 1143
-661 l87 -64 71 54 71 53 -84 79 c-117 111 -365 317 -548 455 -1237 936 -2526
1401 -3660 1320z"/>
<path d="M6487 5842 c-3 -4 -8 -60 -11 -124 l-7 -117 33 -5 c18 -3 68 -8 110
-11 42 -3 114 -12 160 -20 45 -8 85 -11 89 -7 3 4 9 59 13 123 l6 116 -63 11
c-55 10 -149 22 -284 37 -23 2 -44 1 -46 -3z"/>
<path d="M5479 5731 c-91 -29 -279 -103 -279 -110 0 -27 90 -265 99 -263 7 1
58 22 114 46 56 24 128 52 160 62 31 10 57 22 57 28 0 20 -82 256 -88 255 -4
0 -32 -8 -63 -18z"/>
<path d="M1449 5603 c-68 -71 -133 -137 -142 -149 -17 -20 -14 -23 129 -145
80 -68 151 -125 157 -126 7 -1 38 31 71 72 32 41 89 107 127 149 38 41 69 78
69 83 0 10 -265 243 -277 243 -5 0 -65 -57 -134 -127z"/>
<path d="M4344 5038 c-55 -57 -109 -117 -121 -134 l-22 -31 95 -142 95 -142
69 88 c38 48 91 113 118 143 l49 55 -89 132 c-48 73 -90 133 -92 133 -1 0 -48
-46 -102 -102z"/>
<path d="M3730 3996 c-20 -53 -61 -197 -85 -299 l-25 -109 23 -18 c13 -10 84
-66 157 -124 74 -58 138 -106 142 -106 5 0 8 15 8 33 0 36 42 278 64 370 l13
57 -138 110 c-76 61 -141 110 -144 110 -3 0 -10 -11 -15 -24z"/>
<path d="M186 3837 c-115 -271 -148 -350 -165 -395 l-21 -53 28 -10 c100 -39
405 -149 418 -151 11 -2 33 40 83 162 37 91 82 198 99 238 22 52 28 74 19 77
-34 12 -396 145 -419 154 -26 10 -29 8 -42 -22z"/>
<path d="M3560 2543 c0 -112 39 -448 54 -467 8 -11 447 -176 468 -176 3 0 -6
48 -18 108 -13 59 -35 174 -49 256 -14 82 -26 151 -28 152 -3 3 -419 154 -424
154 -2 0 -3 -12 -3 -27z"/>
</g>
</svg>
