<svg width="121" height="124" viewBox="0 0 121 124" fill="none" xmlns="http://www.w3.org/2000/svg">
<ellipse cx="60.5" cy="61.9756" rx="60.5" ry="61.9756" fill="#3B1D62"/>
<rect width="58.4698" height="58.4698" transform="translate(31.6711 33.4832)" fill="#3B1D62"/>
<path d="M38.9799 87.0805C37.6399 87.0805 36.4925 86.603 35.5375 85.648C34.5825 84.693 34.1058 83.5464 34.1074 82.2081V52.9732C34.1074 51.6332 34.5849 50.4858 35.5399 49.5307C36.4949 48.5757 37.6416 48.099 38.9799 48.1007H46.654L51.1611 43.2282H65.7785V52.9732H73.0873V60.2819H82.8322V82.2081C82.8322 83.548 82.3547 84.6955 81.3997 85.6505C80.4447 86.6055 79.298 87.0822 77.9597 87.0805H38.9799ZM58.4698 78.5537C61.5151 78.5537 64.104 77.4874 66.2365 75.3549C68.3691 73.2224 69.4345 70.6343 69.4329 67.5906C69.4329 64.5453 68.3666 61.9564 66.2341 59.8239C64.1016 57.6913 61.5135 56.6259 58.4698 56.6275C55.4245 56.6275 52.8356 57.6938 50.7031 59.8263C48.5705 61.9588 47.5051 64.5469 47.5067 67.5906C47.5067 70.6359 48.573 73.2248 50.7055 75.3573C52.838 77.4899 55.4261 78.5553 58.4698 78.5537ZM58.4698 73.6812C56.7644 73.6812 55.323 73.0924 54.1455 71.9149C52.968 70.7374 52.3792 69.296 52.3792 67.5906C52.3792 65.8852 52.968 64.4438 54.1455 63.2663C55.323 62.0888 56.7644 61.5 58.4698 61.5C60.1752 61.5 61.6166 62.0888 62.7941 63.2663C63.9716 64.4438 64.5604 65.8852 64.5604 67.5906C64.5604 69.296 63.9716 70.7374 62.7941 71.9149C61.6166 73.0924 60.1752 73.6812 58.4698 73.6812ZM77.9597 52.9732V48.1007H73.0873V43.2282H77.9597V38.3557H82.8322V43.2282H87.7047V48.1007H82.8322V52.9732H77.9597Z" fill="white"/>
</svg>
