<svg class=""  viewBox="0 0 600 100" fill="#CC0000" stroke="#CC0000" xmlns="http://www.w3.org/2000/svg">
    
<path d="M 38.321 51.99 L 34.161 51.99 L 34.161 68.822 L 22.385 68.822 L 22.385 25.046 L 42.353 25.046 C 52.017 25.046 57.265 30.102 57.265 37.014 C 57.265 42.902 54.257 45.91 50.481 47.382 C 55.089 49.11 56.433 52.822 56.433 57.878 L 56.433 59.222 C 56.433 62.87 56.561 66.71 56.945 68.822 L 45.361 68.822 C 44.721 67.03 44.465 64.214 44.465 59.222 L 44.465 58.006 C 44.465 53.398 42.993 51.99 38.321 51.99 Z M 34.161 33.558 L 34.161 43.414 L 39.217 43.414 C 42.801 43.414 45.361 42.07 45.361 38.358 C 45.361 34.902 43.057 33.558 39.985 33.558 L 34.161 33.558 Z M 86.136 59.99 L 73.848 59.99 L 71.672 68.822 L 59.768 68.822 L 72.056 25.046 L 88.312 25.046 L 101.112 68.822 L 88.568 68.822 L 86.136 59.99 Z M 75.768 50.582 L 84.152 50.582 C 82.36 43.99 80.824 37.654 79.928 33.11 L 79.736 33.11 C 78.84 37.974 77.368 44.31 75.768 50.582 Z M 104.84 25.046 L 116.936 25.046 L 116.936 68.822 L 104.84 68.822 L 104.84 25.046 Z M 124.568 68.822 L 124.568 25.046 L 136.664 25.046 L 136.664 59.734 L 155.16 59.734 L 153.944 68.822 L 124.568 68.822 Z M 157.238 55.446 L 168.758 55.446 C 169.206 59.03 171.318 61.206 175.286 61.206 C 179.318 61.206 180.598 59.542 180.598 57.11 C 180.598 53.974 178.486 52.502 172.534 50.902 C 161.59 47.958 158.326 43.798 158.326 37.654 C 158.326 28.822 165.494 24.278 174.71 24.278 C 185.526 24.278 191.158 29.462 191.67 37.59 L 180.214 37.59 C 179.83 34.838 178.614 32.598 174.71 32.598 C 171.766 32.598 170.166 33.942 170.166 36.31 C 170.166 38.998 172.086 39.83 177.974 41.43 C 189.494 44.758 192.694 49.11 192.694 55.766 C 192.694 64.15 186.55 69.654 174.902 69.654 C 164.086 69.654 157.686 64.214 157.238 55.446 Z" fill="white" stroke="#CC0000"></path>
<path d="M 221.913 68.822 L 209.817 68.822 L 209.881 25.046 L 221.593 25.046 C 220.953 36.438 220.057 48.918 218.969 56.15 L 219.225 56.15 C 222.745 46.998 227.737 35.478 231.897 25.046 L 242.329 25.046 C 242.137 33.558 241.945 46.358 241.305 55.702 L 241.561 55.702 C 243.865 48.662 250.329 31.51 252.569 25.046 L 264.281 25.046 L 245.017 68.822 L 232.921 68.822 C 233.177 59.926 232.857 49.11 233.305 41.366 L 233.177 41.366 C 230.361 49.238 225.241 60.63 221.913 68.822 Z M 285.398 24.278 C 297.174 24.278 303.126 31.574 303.126 42.134 C 303.126 53.206 297.686 69.654 279.062 69.654 C 266.902 69.654 261.59 62.422 261.59 51.862 C 261.59 41.046 267.734 24.278 285.398 24.278 Z M 284.63 32.854 C 276.886 32.854 273.75 45.974 273.75 52.758 C 273.75 58.326 275.798 61.142 280.022 61.142 C 288.086 61.142 290.966 47.254 290.966 41.11 C 290.966 35.606 289.238 32.854 284.63 32.854 Z M 324.096 51.606 L 319.36 51.606 L 315.776 68.822 L 304.32 68.822 L 313.6 25.046 L 331.008 25.046 C 340.416 25.046 345.088 29.846 345.088 36.054 C 345.088 42.006 341.696 45.91 336.704 47.638 C 339.904 49.558 340.992 53.078 339.648 59.542 C 338.624 64.47 338.368 67.222 338.24 68.822 L 326.912 68.822 C 326.848 67.478 327.104 64.598 328.32 58.902 C 329.344 54.358 329.024 51.606 324.096 51.606 Z M 323.264 33.238 L 321.152 43.35 L 326.208 43.35 C 330.816 43.35 333.056 41.238 333.056 37.59 C 333.056 34.326 330.688 33.238 328.128 33.238 L 323.264 33.238 Z M 344.546 68.822 L 353.89 25.046 L 365.666 25.046 L 358.242 59.99 L 376.226 59.99 L 373.218 68.822 L 344.546 68.822 Z M 378.086 68.822 L 387.43 25.046 L 402.854 25.046 C 415.078 25.046 421.094 33.11 421.094 43.094 C 421.094 56.534 413.606 68.822 397.35 68.822 L 378.086 68.822 Z M 397.414 33.494 L 391.718 60.438 L 397.03 60.438 C 405.542 60.438 408.806 49.878 408.806 42.646 C 408.806 36.118 405.542 33.494 401.126 33.494 L 397.414 33.494 Z M 464.207 68.822 L 434.383 68.822 L 434.511 68.118 C 436.495 58.326 440.463 53.59 451.599 46.23 C 456.847 42.71 458.703 40.47 458.703 37.398 C 458.703 34.774 457.359 33.558 455.119 33.558 C 452.367 33.558 450.895 35.35 449.743 39.446 L 439.055 39.446 C 440.463 33.302 443.983 25.622 456.143 25.622 C 466.191 25.622 470.287 31.574 470.287 37.654 C 470.287 43.99 467.087 47.51 459.919 51.99 C 454.543 55.382 450.895 57.942 449.551 60.182 L 467.343 60.182 L 464.207 68.822 Z M 492.601 25.622 C 505.466 25.622 508.218 36.374 505.593 49.238 C 503.609 58.838 498.361 69.59 486.329 69.59 C 473.593 69.59 470.777 59.542 473.401 46.23 C 475.449 35.734 481.273 25.622 492.601 25.622 Z M 492.218 33.43 C 488.313 33.43 486.265 39.126 484.601 47.574 C 482.745 56.854 482.873 61.846 486.841 61.846 C 490.105 61.846 492.281 57.686 494.266 47.766 C 496.121 38.294 496.314 33.43 492.218 33.43 Z M 536.1 68.822 L 506.276 68.822 L 506.404 68.118 C 508.388 58.326 512.356 53.59 523.492 46.23 C 528.74 42.71 530.596 40.47 530.596 37.398 C 530.596 34.774 529.252 33.558 527.012 33.558 C 524.26 33.558 522.788 35.35 521.636 39.446 L 510.948 39.446 C 512.356 33.302 515.876 25.622 528.036 25.622 C 538.084 25.622 542.18 31.574 542.18 37.654 C 542.18 43.99 538.98 47.51 531.812 51.99 C 526.436 55.382 522.788 57.942 521.444 60.182 L 539.236 60.182 L 536.1 68.822 Z M 557.007 37.462 L 546.703 37.462 C 547.919 31.702 552.079 25.622 562.703 25.622 C 573.007 25.622 576.847 31.062 576.847 36.374 C 576.847 41.238 574.159 44.502 569.231 46.166 L 569.231 46.294 C 571.343 47.318 574.991 50.006 574.927 55.382 C 574.927 62.806 569.551 69.59 557.519 69.59 C 545.807 69.59 542.159 62.998 542.479 56.662 L 553.423 56.662 C 553.423 59.67 554.639 62.038 557.775 62.038 C 561.359 62.038 563.151 58.966 563.151 55.254 C 563.151 52.246 561.743 50.262 557.327 50.262 L 554.255 50.262 L 555.983 42.39 L 558.863 42.39 C 563.407 42.39 565.327 40.022 565.327 36.886 C 565.327 34.902 564.367 33.174 561.743 33.174 C 558.991 33.174 557.839 34.902 557.007 37.462 Z" fill="#BF281C"></path>
<path d="M 221.913 68.822 L 221.913 69.822 L 222.586 69.822 L 222.839 69.198 L 221.913 68.822 Z M 209.817 68.822 L 208.817 68.82 L 208.816 69.822 L 209.817 69.822 L 209.817 68.822 Z M 209.881 25.046 L 209.881 24.046 L 208.882 24.046 L 208.881 25.044 L 209.881 25.046 Z M 221.593 25.046 L 222.591 25.102 L 222.651 24.046 L 221.593 24.046 L 221.593 25.046 Z M 218.969 56.15 L 217.98 56.001 L 217.807 57.15 L 218.969 57.15 L 218.969 56.15 Z M 219.225 56.15 L 219.225 57.15 L 219.912 57.15 L 220.158 56.509 L 219.225 56.15 Z M 231.897 25.046 L 231.897 24.046 L 231.219 24.046 L 230.968 24.675 L 231.897 25.046 Z M 242.329 25.046 L 243.329 25.068 L 243.352 24.046 L 242.329 24.046 L 242.329 25.046 Z M 241.305 55.702 L 240.307 55.633 L 240.234 56.702 L 241.305 56.702 L 241.305 55.702 Z M 241.561 55.702 L 241.561 56.702 L 242.286 56.702 L 242.511 56.013 L 241.561 55.702 Z M 252.569 25.046 L 252.569 24.046 L 251.857 24.046 L 251.624 24.718 L 252.569 25.046 Z M 264.281 25.046 L 265.196 25.448 L 265.814 24.046 L 264.281 24.046 L 264.281 25.046 Z M 245.017 68.822 L 245.017 69.822 L 245.669 69.822 L 245.932 69.224 L 245.017 68.822 Z M 232.921 68.822 L 231.921 68.793 L 231.892 69.822 L 232.921 69.822 L 232.921 68.822 Z M 233.305 41.366 L 234.303 41.423 L 234.365 40.366 L 233.305 40.366 L 233.305 41.366 Z M 233.177 41.366 L 233.177 40.366 L 232.473 40.366 L 232.235 41.029 L 233.177 41.366 Z M 221.913 67.822 L 209.817 67.822 L 209.817 69.822 L 221.913 69.822 L 221.913 67.822 Z M 210.817 68.823 L 210.881 25.047 L 208.881 25.044 L 208.817 68.82 L 210.817 68.823 Z M 209.881 26.046 L 221.593 26.046 L 221.593 24.046 L 209.881 24.046 L 209.881 26.046 Z M 220.595 24.99 C 219.954 36.387 219.06 48.822 217.98 56.001 L 219.958 56.298 C 221.054 49.013 221.952 36.488 222.591 25.102 L 220.595 24.99 Z M 218.969 57.15 L 219.225 57.15 L 219.225 55.15 L 218.969 55.15 L 218.969 57.15 Z M 220.158 56.509 C 223.682 47.346 228.642 35.907 232.826 25.416 L 230.968 24.675 C 226.832 35.048 221.808 46.649 218.292 55.791 L 220.158 56.509 Z M 231.897 26.046 L 242.329 26.046 L 242.329 24.046 L 231.897 24.046 L 231.897 26.046 Z M 241.329 25.023 C 241.137 33.552 240.945 46.319 240.307 55.633 L 242.303 55.77 C 242.945 46.396 243.137 33.563 243.329 25.068 L 241.329 25.023 Z M 241.305 56.702 L 241.561 56.702 L 241.561 54.702 L 241.305 54.702 L 241.305 56.702 Z M 242.511 56.013 C 244.819 48.963 251.248 31.911 253.514 25.373 L 251.624 24.718 C 249.41 31.108 242.911 48.36 240.611 55.391 L 242.511 56.013 Z M 252.569 26.046 L 264.281 26.046 L 264.281 24.046 L 252.569 24.046 L 252.569 26.046 Z M 263.366 24.643 L 244.102 68.419 L 245.932 69.224 L 265.196 25.448 L 263.366 24.643 Z M 245.017 67.822 L 232.921 67.822 L 232.921 69.822 L 245.017 69.822 L 245.017 67.822 Z M 233.921 68.85 C 234.049 64.385 234.033 59.439 234.041 54.663 C 234.049 49.876 234.081 45.263 234.303 41.423 L 232.307 41.308 C 232.081 45.212 232.049 49.879 232.041 54.66 C 232.033 59.453 232.049 64.362 231.921 68.793 L 233.921 68.85 Z M 233.305 40.366 L 233.177 40.366 L 233.177 42.366 L 233.305 42.366 L 233.305 40.366 Z M 232.235 41.029 C 229.427 48.879 224.341 60.189 220.987 68.445 L 222.839 69.198 C 226.141 61.07 231.295 49.596 234.119 41.702 L 232.235 41.029 Z M 285.398 25.278 C 291.074 25.278 295.218 27.03 297.95 29.931 C 300.691 32.843 302.126 37.035 302.126 42.134 L 304.126 42.134 C 304.126 36.672 302.585 31.937 299.406 28.56 C 296.218 25.174 291.498 23.278 285.398 23.278 L 285.398 25.278 Z M 302.126 42.134 C 302.126 47.535 300.794 54.203 297.248 59.488 C 293.736 64.722 288.024 68.654 279.062 68.654 L 279.062 70.654 C 288.724 70.654 295.044 66.361 298.908 60.603 C 302.738 54.896 304.126 47.805 304.126 42.134 L 302.126 42.134 Z M 279.062 68.654 C 273.184 68.654 269.116 66.912 266.505 64.044 C 263.879 61.16 262.59 56.987 262.59 51.862 L 260.59 51.862 C 260.59 57.296 261.957 62.019 265.027 65.391 C 268.112 68.779 272.78 70.654 279.062 70.654 L 279.062 68.654 Z M 262.59 51.862 C 262.59 46.612 264.087 39.921 267.699 34.573 C 271.282 29.268 276.941 25.278 285.398 25.278 L 285.398 23.278 C 276.191 23.278 269.946 27.672 266.041 33.454 C 262.165 39.194 260.59 46.295 260.59 51.862 L 262.59 51.862 Z M 284.63 31.854 C 280.106 31.854 277.145 35.679 275.365 39.871 C 273.554 44.138 272.75 49.25 272.75 52.758 L 274.75 52.758 C 274.75 49.482 275.514 44.641 277.207 40.652 C 278.931 36.588 281.41 33.854 284.63 33.854 L 284.63 31.854 Z M 272.75 52.758 C 272.75 55.634 273.274 57.984 274.499 59.634 C 275.767 61.34 277.665 62.142 280.022 62.142 L 280.022 60.142 C 278.155 60.142 276.917 59.535 276.105 58.441 C 275.25 57.291 274.75 55.449 274.75 52.758 L 272.75 52.758 Z M 280.022 62.142 C 284.722 62.142 287.694 58.1 289.444 53.807 C 291.227 49.432 291.966 44.293 291.966 41.11 L 289.966 41.11 C 289.966 44.07 289.265 48.947 287.592 53.052 C 285.886 57.239 283.386 60.142 280.022 60.142 L 280.022 62.142 Z M 291.966 41.11 C 291.966 38.294 291.532 35.964 290.333 34.327 C 289.081 32.617 287.145 31.854 284.63 31.854 L 284.63 33.854 C 286.723 33.854 287.955 34.466 288.719 35.509 C 289.536 36.623 289.966 38.421 289.966 41.11 L 291.966 41.11 Z M 319.36 51.606 L 319.36 50.606 L 318.547 50.606 L 318.381 51.402 L 319.36 51.606 Z M 315.776 68.822 L 315.776 69.822 L 316.589 69.822 L 316.755 69.025 L 315.776 68.822 Z M 304.32 68.822 L 303.342 68.614 L 303.086 69.822 L 304.32 69.822 L 304.32 68.822 Z M 313.6 25.046 L 313.6 24.046 L 312.79 24.046 L 312.622 24.838 L 313.6 25.046 Z M 336.704 47.638 L 336.377 46.693 L 334.353 47.393 L 336.19 48.495 L 336.704 47.638 Z M 339.648 59.542 L 338.669 59.338 L 339.648 59.542 Z M 338.24 68.822 L 338.24 69.822 L 339.163 69.822 L 339.237 68.901 L 338.24 68.822 Z M 326.912 68.822 L 325.913 68.869 L 325.958 69.822 L 326.912 69.822 L 326.912 68.822 Z M 328.32 58.902 L 327.344 58.682 L 327.342 58.693 L 328.32 58.902 Z M 323.264 33.238 L 323.264 32.238 L 322.451 32.238 L 322.285 33.033 L 323.264 33.238 Z M 321.152 43.35 L 320.173 43.145 L 319.922 44.35 L 321.152 44.35 L 321.152 43.35 Z M 324.096 50.606 L 319.36 50.606 L 319.36 52.606 L 324.096 52.606 L 324.096 50.606 Z M 318.381 51.402 L 314.797 68.618 L 316.755 69.025 L 320.339 51.809 L 318.381 51.402 Z M 315.776 67.822 L 304.32 67.822 L 304.32 69.822 L 315.776 69.822 L 315.776 67.822 Z M 305.298 69.029 L 314.578 25.253 L 312.622 24.838 L 303.342 68.614 L 305.298 69.029 Z M 313.6 26.046 L 331.008 26.046 L 331.008 24.046 L 313.6 24.046 L 313.6 26.046 Z M 331.008 26.046 C 335.55 26.046 338.817 27.204 340.931 28.986 C 343.029 30.755 344.088 33.216 344.088 36.054 L 346.088 36.054 C 346.088 32.683 344.811 29.641 342.221 27.457 C 339.647 25.287 335.874 24.046 331.008 24.046 L 331.008 26.046 Z M 344.088 36.054 C 344.088 38.831 343.3 41.077 341.972 42.824 C 340.639 44.578 338.72 45.882 336.377 46.693 L 337.031 48.583 C 339.68 47.666 341.953 46.154 343.564 44.035 C 345.18 41.91 346.088 39.229 346.088 36.054 L 344.088 36.054 Z M 336.19 48.495 C 337.572 49.325 338.477 50.471 338.913 52.139 C 339.361 53.854 339.326 56.176 338.669 59.338 L 340.627 59.745 C 341.314 56.444 341.407 53.774 340.847 51.633 C 340.275 49.444 339.036 47.871 337.218 46.78 L 336.19 48.495 Z M 338.669 59.338 C 337.635 64.313 337.374 67.107 337.243 68.742 L 339.237 68.901 C 339.362 67.336 339.613 64.626 340.627 59.745 L 338.669 59.338 Z M 338.24 67.822 L 326.912 67.822 L 326.912 69.822 L 338.24 69.822 L 338.24 67.822 Z M 327.911 68.774 C 327.853 67.569 328.084 64.797 329.298 59.11 L 327.342 58.693 C 326.124 64.398 325.843 67.387 325.913 68.869 L 327.911 68.774 Z M 329.296 59.121 C 329.557 57.961 329.744 56.87 329.784 55.886 C 329.825 54.906 329.724 53.962 329.351 53.138 C 328.541 51.347 326.712 50.606 324.096 50.606 L 324.096 52.606 C 326.408 52.606 327.203 53.241 327.529 53.962 C 327.724 54.393 327.819 54.99 327.786 55.803 C 327.752 56.613 327.595 57.57 327.344 58.682 L 329.296 59.121 Z M 322.285 33.033 L 320.173 43.145 L 322.131 43.554 L 324.243 33.442 L 322.285 33.033 Z M 321.152 44.35 L 326.208 44.35 L 326.208 42.35 L 321.152 42.35 L 321.152 44.35 Z M 326.208 44.35 C 328.647 44.35 330.631 43.793 332.015 42.594 C 333.423 41.373 334.056 39.625 334.056 37.59 L 332.056 37.59 C 332.056 39.202 331.569 40.334 330.705 41.082 C 329.817 41.851 328.377 42.35 326.208 42.35 L 326.208 44.35 Z M 334.056 37.59 C 334.056 35.685 333.348 34.281 332.15 33.388 C 331.001 32.531 329.526 32.238 328.128 32.238 L 328.128 34.238 C 329.29 34.238 330.279 34.488 330.954 34.991 C 331.58 35.458 332.056 36.23 332.056 37.59 L 334.056 37.59 Z M 328.128 32.238 L 323.264 32.238 L 323.264 34.238 L 328.128 34.238 L 328.128 32.238 Z M 344.546 68.822 L 343.568 68.613 L 343.31 69.822 L 344.546 69.822 L 344.546 68.822 Z M 353.89 25.046 L 353.89 24.046 L 353.081 24.046 L 352.912 24.837 L 353.89 25.046 Z M 365.666 25.046 L 366.644 25.253 L 366.901 24.046 L 365.666 24.046 L 365.666 25.046 Z M 358.242 59.99 L 357.264 59.782 L 357.007 60.99 L 358.242 60.99 L 358.242 59.99 Z M 376.226 59.99 L 377.173 60.312 L 377.623 58.99 L 376.226 58.99 L 376.226 59.99 Z M 373.218 68.822 L 373.218 69.822 L 373.934 69.822 L 374.165 69.144 L 373.218 68.822 Z M 345.524 69.03 L 354.868 25.254 L 352.912 24.837 L 343.568 68.613 L 345.524 69.03 Z M 353.89 26.046 L 365.666 26.046 L 365.666 24.046 L 353.89 24.046 L 353.89 26.046 Z M 364.688 24.838 L 357.264 59.782 L 359.22 60.197 L 366.644 25.253 L 364.688 24.838 Z M 358.242 60.99 L 376.226 60.99 L 376.226 58.99 L 358.242 58.99 L 358.242 60.99 Z M 375.279 59.667 L 372.271 68.499 L 374.165 69.144 L 377.173 60.312 L 375.279 59.667 Z M 373.218 67.822 L 344.546 67.822 L 344.546 69.822 L 373.218 69.822 L 373.218 67.822 Z M 378.086 68.822 L 377.108 68.613 L 376.85 69.822 L 378.086 69.822 L 378.086 68.822 Z M 387.43 25.046 L 387.43 24.046 L 386.621 24.046 L 386.452 24.837 L 387.43 25.046 Z M 397.414 33.494 L 397.414 32.494 L 396.603 32.494 L 396.436 33.287 L 397.414 33.494 Z M 391.718 60.438 L 390.74 60.231 L 390.485 61.438 L 391.718 61.438 L 391.718 60.438 Z M 379.064 69.03 L 388.408 25.254 L 386.452 24.837 L 377.108 68.613 L 379.064 69.03 Z M 387.43 26.046 L 402.854 26.046 L 402.854 24.046 L 387.43 24.046 L 387.43 26.046 Z M 402.854 26.046 C 408.735 26.046 413.012 27.978 415.825 31.006 C 418.65 34.047 420.094 38.297 420.094 43.094 L 422.094 43.094 C 422.094 37.906 420.53 33.132 417.291 29.645 C 414.04 26.145 409.197 24.046 402.854 24.046 L 402.854 26.046 Z M 420.094 43.094 C 420.094 49.641 418.269 55.83 414.545 60.363 C 410.844 64.868 405.199 67.822 397.35 67.822 L 397.35 69.822 C 405.757 69.822 411.984 66.631 416.091 61.632 C 420.175 56.661 422.094 49.986 422.094 43.094 L 420.094 43.094 Z M 397.35 67.822 L 378.086 67.822 L 378.086 69.822 L 397.35 69.822 L 397.35 67.822 Z M 396.436 33.287 L 390.74 60.231 L 392.696 60.644 L 398.392 33.7 L 396.436 33.287 Z M 391.718 61.438 L 397.03 61.438 L 397.03 59.438 L 391.718 59.438 L 391.718 61.438 Z M 397.03 61.438 C 401.788 61.438 405.012 58.458 406.993 54.722 C 408.967 51.001 409.806 46.384 409.806 42.646 L 407.806 42.646 C 407.806 46.14 407.013 50.418 405.227 53.785 C 403.448 57.137 400.784 59.438 397.03 59.438 L 397.03 61.438 Z M 409.806 42.646 C 409.806 39.226 408.951 36.658 407.355 34.941 C 405.749 33.213 403.532 32.494 401.126 32.494 L 401.126 34.494 C 403.136 34.494 404.759 35.086 405.889 36.302 C 407.029 37.529 407.806 39.537 407.806 42.646 L 409.806 42.646 Z M 401.126 32.494 L 397.414 32.494 L 397.414 34.494 L 401.126 34.494 L 401.126 32.494 Z M 464.207 68.822 L 464.207 69.822 L 464.908 69.822 L 465.147 69.163 L 464.207 68.822 Z M 434.383 68.822 L 433.399 68.643 L 433.185 69.822 L 434.383 69.822 L 434.383 68.822 Z M 434.511 68.118 L 433.531 67.919 L 433.529 67.929 L 433.527 67.939 L 434.511 68.118 Z M 451.599 46.23 L 452.15 47.064 L 452.156 47.06 L 451.599 46.23 Z M 449.743 39.446 L 449.743 40.446 L 450.501 40.446 L 450.706 39.716 L 449.743 39.446 Z M 439.055 39.446 L 438.08 39.222 L 437.8 40.446 L 439.055 40.446 L 439.055 39.446 Z M 459.919 51.99 L 459.389 51.142 L 459.385 51.144 L 459.919 51.99 Z M 449.551 60.182 L 448.694 59.667 L 447.785 61.182 L 449.551 61.182 L 449.551 60.182 Z M 467.343 60.182 L 468.283 60.523 L 468.77 59.182 L 467.343 59.182 L 467.343 60.182 Z M 464.207 67.822 L 434.383 67.822 L 434.383 69.822 L 464.207 69.822 L 464.207 67.822 Z M 435.367 69.001 L 435.495 68.297 L 433.527 67.939 L 433.399 68.643 L 435.367 69.001 Z M 435.491 68.316 C 436.461 63.529 437.898 60.055 440.407 56.882 C 442.938 53.682 446.605 50.729 452.15 47.064 L 451.048 45.395 C 445.457 49.09 441.572 52.185 438.839 55.641 C 436.084 59.124 434.545 62.914 433.531 67.919 L 435.491 68.316 Z M 452.156 47.06 C 457.401 43.542 459.703 41.038 459.703 37.398 L 457.703 37.398 C 457.703 39.902 456.293 41.877 451.042 45.399 L 452.156 47.06 Z M 459.703 37.398 C 459.703 35.925 459.325 34.676 458.467 33.796 C 457.606 32.912 456.414 32.558 455.119 32.558 L 455.119 34.558 C 456.064 34.558 456.664 34.811 457.035 35.192 C 457.409 35.576 457.703 36.246 457.703 37.398 L 459.703 37.398 Z M 455.119 32.558 C 453.484 32.558 452.147 33.109 451.085 34.3 C 450.074 35.434 449.368 37.085 448.78 39.175 L 450.706 39.716 C 451.27 37.71 451.876 36.418 452.577 35.631 C 453.227 34.903 454.002 34.558 455.119 34.558 L 455.119 32.558 Z M 449.743 38.446 L 439.055 38.446 L 439.055 40.446 L 449.743 40.446 L 449.743 38.446 Z M 440.03 39.669 C 440.717 36.668 441.896 33.419 444.289 30.922 C 446.651 28.457 450.296 26.622 456.143 26.622 L 456.143 24.622 C 449.83 24.622 445.635 26.626 442.845 29.538 C 440.086 32.417 438.801 36.079 438.08 39.222 L 440.03 39.669 Z M 456.143 26.622 C 460.966 26.622 464.228 28.045 466.281 30.07 C 468.34 32.1 469.287 34.836 469.287 37.654 L 471.287 37.654 C 471.287 34.392 470.186 31.111 467.685 28.646 C 465.178 26.174 461.368 24.622 456.143 24.622 L 456.143 26.622 Z M 469.287 37.654 C 469.287 40.626 468.545 42.872 466.995 44.913 C 465.413 46.995 462.949 48.916 459.389 51.142 L 460.449 52.838 C 464.057 50.583 466.777 48.505 468.587 46.123 C 470.429 43.699 471.287 41.017 471.287 37.654 L 469.287 37.654 Z M 459.385 51.144 C 456.694 52.842 454.405 54.35 452.614 55.724 C 450.841 57.084 449.467 58.378 448.694 59.667 L 450.409 60.696 C 450.979 59.745 452.101 58.639 453.832 57.311 C 455.545 55.997 457.768 54.529 460.453 52.835 L 459.385 51.144 Z M 449.551 61.182 L 467.343 61.182 L 467.343 59.182 L 449.551 59.182 L 449.551 61.182 Z M 466.403 59.84 L 463.267 68.48 L 465.147 69.163 L 468.283 60.523 L 466.403 59.84 Z M 505.593 49.238 L 506.573 49.44 L 506.573 49.438 L 505.593 49.238 Z M 473.402 46.23 L 474.383 46.423 L 474.383 46.421 L 473.402 46.23 Z M 484.601 47.574 L 485.582 47.77 L 485.583 47.767 L 484.601 47.574 Z M 494.265 47.766 L 495.246 47.962 L 495.247 47.958 L 494.265 47.766 Z M 492.601 26.622 C 495.679 26.622 498.076 27.264 499.915 28.361 C 501.748 29.455 503.087 31.037 503.996 33.022 C 505.834 37.034 505.909 42.686 504.614 49.038 L 506.573 49.438 C 507.902 42.925 507.913 36.769 505.815 32.189 C 504.756 29.878 503.159 27.968 500.94 26.644 C 498.727 25.323 495.956 24.622 492.601 24.622 L 492.601 26.622 Z M 504.614 49.035 C 503.639 53.756 501.875 58.676 498.944 62.395 C 496.041 66.078 491.996 68.59 486.329 68.59 L 486.329 70.59 C 492.695 70.59 497.29 67.725 500.515 63.633 C 503.712 59.575 505.564 54.319 506.573 49.44 L 504.614 49.035 Z M 486.329 68.59 C 483.275 68.59 480.892 67.987 479.063 66.943 C 477.243 65.904 475.915 64.395 475.01 62.475 C 473.179 58.59 473.084 53.009 474.383 46.423 L 472.42 46.036 C 471.095 52.762 471.096 58.861 473.201 63.328 C 474.264 65.585 475.864 67.419 478.072 68.68 C 480.271 69.936 483.016 70.59 486.329 70.59 L 486.329 68.59 Z M 474.383 46.421 C 475.388 41.272 477.307 36.292 480.297 32.621 C 483.264 28.979 487.281 26.622 492.601 26.622 L 492.601 24.622 C 486.594 24.622 482.035 27.32 478.746 31.358 C 475.48 35.367 473.463 40.692 472.42 46.038 L 474.383 46.421 Z M 492.217 32.43 C 489.669 32.43 487.925 34.319 486.67 36.896 C 485.402 39.501 484.454 43.147 483.62 47.38 L 485.583 47.767 C 486.413 43.552 487.321 40.126 488.469 37.772 C 489.63 35.388 490.862 34.43 492.217 34.43 L 492.217 32.43 Z M 483.621 47.378 C 482.694 52.014 482.227 55.726 482.545 58.312 C 482.705 59.611 483.076 60.755 483.807 61.582 C 484.572 62.449 485.619 62.846 486.841 62.846 L 486.841 60.846 C 486.08 60.846 485.623 60.618 485.306 60.259 C 484.955 59.861 484.666 59.176 484.53 58.068 C 484.256 55.837 484.653 52.413 485.582 47.77 L 483.621 47.378 Z M 486.841 62.846 C 489.016 62.846 490.643 61.414 491.918 58.991 C 493.189 56.577 494.251 52.938 495.246 47.962 L 493.285 47.57 C 492.296 52.513 491.278 55.914 490.149 58.06 C 489.024 60.197 487.931 60.846 486.841 60.846 L 486.841 62.846 Z M 495.247 47.958 C 496.171 43.244 496.717 39.518 496.469 36.949 C 496.344 35.658 496.007 34.51 495.279 33.679 C 494.515 32.807 493.454 32.43 492.217 32.43 L 492.217 34.43 C 493.029 34.43 493.48 34.661 493.774 34.997 C 494.104 35.373 494.371 36.034 494.478 37.142 C 494.694 39.373 494.216 42.816 493.284 47.573 L 495.247 47.958 Z M 536.1 68.822 L 536.1 69.822 L 536.8 69.822 L 537.04 69.163 L 536.1 68.822 Z M 506.276 68.822 L 505.292 68.643 L 505.077 69.822 L 506.276 69.822 L 506.276 68.822 Z M 506.403 68.118 L 505.423 67.919 L 505.421 67.929 L 505.42 67.939 L 506.403 68.118 Z M 523.492 46.23 L 524.043 47.064 L 524.049 47.06 L 523.492 46.23 Z M 521.636 39.446 L 521.636 40.446 L 522.393 40.446 L 522.598 39.716 L 521.636 39.446 Z M 510.948 39.446 L 509.973 39.222 L 509.692 40.446 L 510.948 40.446 L 510.948 39.446 Z M 531.812 51.99 L 531.282 51.142 L 531.278 51.144 L 531.812 51.99 Z M 521.444 60.182 L 520.586 59.667 L 519.677 61.182 L 521.444 61.182 L 521.444 60.182 Z M 539.235 60.182 L 540.176 60.523 L 540.662 59.182 L 539.235 59.182 L 539.235 60.182 Z M 536.1 67.822 L 506.276 67.822 L 506.276 69.822 L 536.1 69.822 L 536.1 67.822 Z M 507.259 69.001 L 507.387 68.297 L 505.42 67.939 L 505.292 68.643 L 507.259 69.001 Z M 507.384 68.316 C 508.354 63.529 509.79 60.055 512.3 56.882 C 514.83 53.682 518.497 50.729 524.043 47.064 L 522.94 45.395 C 517.35 49.09 513.465 52.185 510.731 55.641 C 507.977 59.124 506.437 62.914 505.423 67.919 L 507.384 68.316 Z M 524.049 47.06 C 529.293 43.542 531.596 41.038 531.596 37.398 L 529.596 37.398 C 529.596 39.902 528.186 41.877 522.934 45.399 L 524.049 47.06 Z M 531.596 37.398 C 531.596 35.925 531.217 34.676 530.36 33.796 C 529.498 32.912 528.306 32.558 527.011 32.558 L 527.011 34.558 C 527.957 34.558 528.557 34.811 528.927 35.192 C 529.302 35.576 529.596 36.246 529.596 37.398 L 531.596 37.398 Z M 527.011 32.558 C 525.377 32.558 524.04 33.109 522.977 34.3 C 521.966 35.434 521.261 37.085 520.673 39.175 L 522.598 39.716 C 523.162 37.71 523.769 36.418 524.47 35.631 C 525.119 34.903 525.894 34.558 527.011 34.558 L 527.011 32.558 Z M 521.636 38.446 L 510.948 38.446 L 510.948 40.446 L 521.636 40.446 L 521.636 38.446 Z M 511.922 39.669 C 512.61 36.668 513.788 33.419 516.181 30.922 C 518.543 28.457 522.188 26.622 528.036 26.622 L 528.036 24.622 C 521.723 24.622 517.528 26.626 514.738 29.538 C 511.979 32.417 510.693 36.079 509.973 39.222 L 511.922 39.669 Z M 528.036 26.622 C 532.858 26.622 536.12 28.045 538.173 30.07 C 540.233 32.1 541.179 34.836 541.179 37.654 L 543.179 37.654 C 543.179 34.392 542.079 31.111 539.578 28.646 C 537.071 26.174 533.261 24.622 528.036 24.622 L 528.036 26.622 Z M 541.179 37.654 C 541.179 40.626 540.438 42.872 538.887 44.913 C 537.305 46.995 534.842 48.916 531.282 51.142 L 532.342 52.838 C 535.949 50.583 538.67 48.505 540.48 46.123 C 542.321 43.699 543.179 41.017 543.179 37.654 L 541.179 37.654 Z M 531.278 51.144 C 528.587 52.842 526.298 54.35 524.507 55.724 C 522.734 57.084 521.359 58.378 520.586 59.667 L 522.301 60.696 C 522.872 59.745 523.993 58.639 525.724 57.311 C 527.437 55.997 529.66 54.529 532.345 52.835 L 531.278 51.144 Z M 521.444 61.182 L 539.235 61.182 L 539.235 59.182 L 521.444 59.182 L 521.444 61.182 Z M 538.296 59.84 L 535.16 68.48 L 537.04 69.163 L 540.176 60.523 L 538.296 59.84 Z M 557.007 37.462 L 557.007 38.462 L 557.734 38.462 L 557.959 37.771 L 557.007 37.462 Z M 546.703 37.462 L 545.725 37.255 L 545.47 38.462 L 546.703 38.462 L 546.703 37.462 Z M 569.232 46.166 L 568.912 45.218 L 568.232 45.448 L 568.232 46.166 L 569.232 46.166 Z M 569.232 46.294 L 568.232 46.294 L 568.232 46.92 L 568.795 47.193 L 569.232 46.294 Z M 574.927 55.382 L 573.927 55.37 L 573.927 55.382 L 574.927 55.382 Z M 542.479 56.662 L 542.479 55.662 L 541.529 55.662 L 541.481 56.611 L 542.479 56.662 Z M 553.423 56.662 L 554.423 56.662 L 554.423 55.662 L 553.423 55.662 L 553.423 56.662 Z M 554.255 50.262 L 553.279 50.047 L 553.012 51.262 L 554.255 51.262 L 554.255 50.262 Z M 555.983 42.39 L 555.983 41.39 L 555.179 41.39 L 555.007 42.175 L 555.983 42.39 Z M 557.007 36.462 L 546.703 36.462 L 546.703 38.462 L 557.007 38.462 L 557.007 36.462 Z M 547.682 37.668 C 548.258 34.937 549.52 32.191 551.84 30.129 C 554.147 28.079 557.593 26.622 562.703 26.622 L 562.703 24.622 C 557.19 24.622 553.244 26.205 550.511 28.634 C 547.791 31.052 546.365 34.226 545.725 37.255 L 547.682 37.668 Z M 562.703 26.622 C 567.684 26.622 570.955 27.935 572.97 29.749 C 574.98 31.559 575.847 33.962 575.847 36.374 L 577.847 36.374 C 577.847 33.473 576.795 30.501 574.309 28.262 C 571.828 26.029 568.027 24.622 562.703 24.622 L 562.703 26.622 Z M 575.847 36.374 C 575.847 38.611 575.234 40.417 574.103 41.85 C 572.964 43.293 571.243 44.431 568.912 45.218 L 569.551 47.113 C 572.148 46.236 574.235 44.911 575.672 43.089 C 577.117 41.258 577.847 39 577.847 36.374 L 575.847 36.374 Z M 568.232 46.166 L 568.232 46.294 L 570.232 46.294 L 570.232 46.166 L 568.232 46.166 Z M 568.795 47.193 C 570.74 48.136 573.985 50.549 573.928 55.37 L 575.927 55.394 C 575.998 49.463 571.947 46.499 569.668 45.394 L 568.795 47.193 Z M 573.927 55.382 C 573.927 58.848 572.677 62.121 570.058 64.534 C 567.437 66.949 563.348 68.59 557.519 68.59 L 557.519 70.59 C 563.723 70.59 568.338 68.838 571.413 66.005 C 574.49 63.17 575.927 59.34 575.927 55.382 L 573.927 55.382 Z M 557.519 68.59 C 551.848 68.59 548.304 66.998 546.21 64.81 C 544.11 62.617 543.328 59.68 543.478 56.712 L 541.481 56.611 C 541.311 59.98 542.193 63.506 544.765 66.193 C 547.343 68.886 551.479 70.59 557.519 70.59 L 557.519 68.59 Z M 542.479 57.662 L 553.423 57.662 L 553.423 55.662 L 542.479 55.662 L 542.479 57.662 Z M 552.423 56.662 C 552.423 58.276 552.746 59.858 553.612 61.061 C 554.515 62.317 555.92 63.038 557.775 63.038 L 557.775 61.038 C 556.495 61.038 555.724 60.574 555.235 59.894 C 554.709 59.162 554.423 58.055 554.423 56.662 L 552.423 56.662 Z M 557.775 63.038 C 559.894 63.038 561.536 62.111 562.616 60.626 C 563.671 59.176 564.151 57.254 564.151 55.254 L 562.151 55.254 C 562.151 56.965 561.736 58.435 560.999 59.449 C 560.287 60.428 559.241 61.038 557.775 61.038 L 557.775 63.038 Z M 564.151 55.254 C 564.151 53.61 563.767 52.046 562.59 50.91 C 561.422 49.783 559.662 49.262 557.327 49.262 L 557.327 51.262 C 559.409 51.262 560.561 51.732 561.201 52.349 C 561.832 52.958 562.151 53.889 562.151 55.254 L 564.151 55.254 Z M 557.327 49.262 L 554.255 49.262 L 554.255 51.262 L 557.327 51.262 L 557.327 49.262 Z M 555.232 50.476 L 556.96 42.604 L 555.007 42.175 L 553.279 50.047 L 555.232 50.476 Z M 555.983 43.39 L 558.863 43.39 L 558.863 41.39 L 555.983 41.39 L 555.983 43.39 Z M 558.863 43.39 C 561.302 43.39 563.195 42.753 564.484 41.543 C 565.78 40.326 566.327 38.659 566.327 36.886 L 564.327 36.886 C 564.327 38.249 563.915 39.333 563.115 40.085 C 562.308 40.842 560.969 41.39 558.863 41.39 L 558.863 43.39 Z M 566.327 36.886 C 566.327 35.75 566.055 34.564 565.287 33.645 C 564.493 32.694 563.291 32.174 561.743 32.174 L 561.743 34.174 C 562.82 34.174 563.41 34.517 563.752 34.927 C 564.12 35.368 564.327 36.037 564.327 36.886 L 566.327 36.886 Z M 561.743 32.174 C 560.128 32.174 558.884 32.694 557.941 33.658 C 557.04 34.579 556.486 35.831 556.056 37.153 L 557.959 37.771 C 558.361 36.532 558.799 35.641 559.37 35.057 C 559.899 34.517 560.607 34.174 561.743 34.174 L 561.743 32.174 Z" fill="#CC0000"></path>

</svg>