<svg width="250" height="127" viewBox="0 0 250 127" fill="white" xmlns="http://www.w3.org/2000/svg">
          <mask id="path-1-inside-1_2_21" fill="white">
          <path d="M0 12H250V119H0V12Z"/>
          </mask>
          <path d="M249 12V119H251V12H249ZM1 119V12H-1V119H1Z" fill="white" mask="url(#path-1-inside-1_2_21)"/>
          <mask id="path-3-inside-2_2_21" fill="white">
          <path d="M0 0H250V65H0V0Z"/>
          </mask>
          <path d="M250 64H0V66H250V64Z" fill="white" mask="url(#path-3-inside-2_2_21)"/>
          <path d="M56.7972 40.168H52.6372V57H40.8612V13.224H60.8292C70.4932 13.224 75.7412 18.28 75.7412 25.192C75.7412 31.08 72.7332 34.088 68.9572 35.56C73.5653 37.288 74.9092 41 74.9092 46.056V47.4C74.9092 51.048 75.0373 54.888 75.4212 57H63.8372C63.1973 55.208 62.9412 52.392 62.9412 47.4V46.184C62.9412 41.576 61.4692 40.168 56.7972 40.168ZM52.6372 21.736V31.592H57.6932C61.2772 31.592 63.8372 30.248 63.8372 26.536C63.8372 23.08 61.5332 21.736 58.4612 21.736H52.6372ZM104.612 48.168H92.3243L90.1482 57H78.2442L90.5322 13.224H106.788L119.588 57H107.044L104.612 48.168ZM94.2442 38.76H102.628C100.836 32.168 99.3003 25.832 98.4042 21.288H98.2122C97.3162 26.152 95.8442 32.488 94.2442 38.76ZM123.316 13.224H135.412V57H123.316V13.224ZM143.044 57V13.224H155.14V47.912H173.636L172.42 57H143.044ZM175.714 43.624H187.234C187.682 47.208 189.794 49.384 193.762 49.384C197.794 49.384 199.074 47.72 199.074 45.288C199.074 42.152 196.962 40.68 191.01 39.08C180.066 36.136 176.802 31.976 176.802 25.832C176.802 17 183.97 12.456 193.186 12.456C204.002 12.456 209.634 17.64 210.146 25.768H198.69C198.306 23.016 197.09 20.776 193.186 20.776C190.242 20.776 188.642 22.12 188.642 24.488C188.642 27.176 190.562 28.008 196.45 29.608C207.97 32.936 211.17 37.288 211.17 43.944C211.17 52.328 205.026 57.832 193.378 57.832C182.562 57.832 176.162 52.392 175.714 43.624Z" fill="white"/>
          <path d="M19.7511 97H12.1911L12.2311 69.64H19.5511C19.1511 76.76 18.5911 84.56 17.9111 89.08H18.0711C20.2711 83.36 23.3911 76.16 25.9911 69.64H32.5111C32.3911 74.96 32.2711 82.96 31.8711 88.8H32.0311C33.4711 84.4 37.5111 73.68 38.9111 69.64H46.2311L34.1911 97H26.6311C26.7911 91.44 26.5911 84.68 26.8711 79.84H26.7911C25.0311 84.76 21.8311 91.88 19.7511 97ZM59.4292 69.16C66.7892 69.16 70.5092 73.72 70.5092 80.32C70.5092 87.24 67.1092 97.52 55.4692 97.52C47.8692 97.52 44.5492 93 44.5492 86.4C44.5492 79.64 48.3892 69.16 59.4292 69.16ZM58.9492 74.52C54.1092 74.52 52.1492 82.72 52.1492 86.96C52.1492 90.44 53.4292 92.2 56.0692 92.2C61.1092 92.2 62.9092 83.52 62.9092 79.68C62.9092 76.24 61.8292 74.52 58.9492 74.52ZM83.6155 86.24H80.6555L78.4155 97H71.2555L77.0555 69.64H87.9355C93.8155 69.64 96.7355 72.64 96.7355 76.52C96.7355 80.24 94.6155 82.68 91.4955 83.76C93.4955 84.96 94.1755 87.16 93.3355 91.2C92.6955 94.28 92.5355 96 92.4555 97H85.3755C85.3355 96.16 85.4955 94.36 86.2555 90.8C86.8955 87.96 86.6955 86.24 83.6155 86.24ZM83.0955 74.76L81.7755 81.08H84.9355C87.8155 81.08 89.2155 79.76 89.2155 77.48C89.2155 75.44 87.7355 74.76 86.1355 74.76H83.0955ZM96.3967 97L102.237 69.64H109.597L104.957 91.48H116.197L114.317 97H96.3967ZM117.359 97L123.199 69.64H132.839C140.479 69.64 144.239 74.68 144.239 80.92C144.239 89.32 139.559 97 129.399 97H117.359ZM129.439 74.92L125.879 91.76H129.199C134.519 91.76 136.559 85.16 136.559 80.64C136.559 76.56 134.519 74.92 131.759 74.92H129.439ZM171.185 97H152.545L152.625 96.56C153.865 90.44 156.345 87.48 163.305 82.88C166.585 80.68 167.745 79.28 167.745 77.36C167.745 75.72 166.905 74.96 165.505 74.96C163.785 74.96 162.865 76.08 162.145 78.64H155.465C156.345 74.8 158.545 70 166.145 70C172.425 70 174.985 73.72 174.985 77.52C174.985 81.48 172.985 83.68 168.505 86.48C165.145 88.6 162.865 90.2 162.025 91.6H173.145L171.185 97ZM188.931 70C196.971 70 198.691 76.72 197.051 84.76C195.811 90.76 192.531 97.48 185.011 97.48C177.051 97.48 175.291 91.2 176.931 82.88C178.211 76.32 181.851 70 188.931 70ZM188.691 74.88C186.251 74.88 184.971 78.44 183.931 83.72C182.771 89.52 182.851 92.64 185.331 92.64C187.371 92.64 188.731 90.04 189.971 83.84C191.131 77.92 191.251 74.88 188.691 74.88ZM216.118 97H197.478L197.558 96.56C198.798 90.44 201.278 87.48 208.238 82.88C211.518 80.68 212.678 79.28 212.678 77.36C212.678 75.72 211.838 74.96 210.438 74.96C208.718 74.96 207.798 76.08 207.078 78.64H200.398C201.278 74.8 203.478 70 211.078 70C217.358 70 219.918 73.72 219.918 77.52C219.918 81.48 217.918 83.68 213.438 86.48C210.078 88.6 207.798 90.2 206.958 91.6H218.078L216.118 97ZM229.185 77.4H222.745C223.505 73.8 226.105 70 232.745 70C239.185 70 241.585 73.4 241.585 76.72C241.585 79.76 239.905 81.8 236.825 82.84V82.92C238.145 83.56 240.425 85.24 240.385 88.6C240.385 93.24 237.025 97.48 229.505 97.48C222.185 97.48 219.905 93.36 220.105 89.4H226.945C226.945 91.28 227.705 92.76 229.665 92.76C231.905 92.76 233.025 90.84 233.025 88.52C233.025 86.64 232.145 85.4 229.385 85.4H227.465L228.545 80.48H230.345C233.185 80.48 234.385 79 234.385 77.04C234.385 75.8 233.785 74.72 232.145 74.72C230.425 74.72 229.705 75.8 229.185 77.4Z" fill="white"/>
          <path d="M19.7511 97V98H20.4242L20.6776 97.3764L19.7511 97ZM12.1911 97L11.1911 96.9985L11.1896 98H12.1911V97ZM12.2311 69.64V68.64H11.2326L11.2311 69.6385L12.2311 69.64ZM19.5511 69.64L20.5495 69.6961L20.6088 68.64H19.5511V69.64ZM17.9111 89.08L16.9222 88.9312L16.7494 90.08H17.9111V89.08ZM18.0711 89.08V90.08H18.7579L19.0044 89.439L18.0711 89.08ZM25.9911 69.64V68.64H25.3133L25.0622 69.2696L25.9911 69.64ZM32.5111 69.64L33.5108 69.6625L33.5339 68.64H32.5111V69.64ZM31.8711 88.8L30.8734 88.7317L30.8003 89.8H31.8711V88.8ZM32.0311 88.8V89.8H32.756L32.9815 89.111L32.0311 88.8ZM38.9111 69.64V68.64H38.1993L37.9662 69.3126L38.9111 69.64ZM46.2311 69.64L47.1464 70.0428L47.7637 68.64H46.2311V69.64ZM34.1911 97V98H34.8436L35.1064 97.4028L34.1911 97ZM26.6311 97L25.6315 96.9712L25.6019 98H26.6311V97ZM26.8711 79.84L27.8694 79.8978L27.9306 78.84H26.8711V79.84ZM26.7911 79.84V78.84H26.0868L25.8495 79.5032L26.7911 79.84ZM19.7511 96H12.1911V98H19.7511V96ZM13.1911 97.0015L13.2311 69.6415L11.2311 69.6385L11.1911 96.9985L13.1911 97.0015ZM12.2311 70.64H19.5511V68.64H12.2311V70.64ZM18.5527 69.5839C18.1524 76.7094 17.5942 84.4642 16.9222 88.9312L18.9 89.2288C19.5879 84.6558 20.1498 76.8106 20.5495 69.6961L18.5527 69.5839ZM17.9111 90.08H18.0711V88.08H17.9111V90.08ZM19.0044 89.439C21.2085 83.7083 24.2964 76.5894 26.92 70.0104L25.0622 69.2696C22.4858 75.7306 19.3337 83.0116 17.1377 88.721L19.0044 89.439ZM25.9911 70.64H32.5111V68.64H25.9911V70.64ZM31.5113 69.6174C31.391 74.9544 31.2714 82.9213 30.8734 88.7317L32.8688 88.8683C33.2708 82.9987 33.3912 74.9656 33.5108 69.6625L31.5113 69.6174ZM31.8711 89.8H32.0311V87.8H31.8711V89.8ZM32.9815 89.111C34.4247 84.7013 38.4304 74.0812 39.856 69.9674L37.9662 69.3126C36.5918 73.2788 32.5175 84.0987 31.0807 88.489L32.9815 89.111ZM38.9111 70.64H46.2311V68.64H38.9111V70.64ZM45.3158 69.2372L33.2758 96.5972L35.1064 97.4028L47.1464 70.0428L45.3158 69.2372ZM34.1911 96H26.6311V98H34.1911V96ZM27.6307 97.0288C27.7112 94.2314 27.7011 91.133 27.7061 88.1517C27.7111 85.1586 27.7313 82.2856 27.8694 79.8978L25.8728 79.7822C25.7309 82.2344 25.7111 85.1614 25.7061 88.1483C25.7011 91.147 25.711 94.2086 25.6315 96.9712L27.6307 97.0288ZM26.8711 78.84H26.7911V80.84H26.8711V78.84ZM25.8495 79.5032C24.0972 84.4018 20.9306 91.4397 18.8246 96.6236L20.6776 97.3764C22.7316 92.3203 25.965 85.1182 27.7327 80.1768L25.8495 79.5032ZM59.4292 70.16C62.8968 70.16 65.3795 71.228 67.0011 72.9505C68.6321 74.6829 69.5092 77.2018 69.5092 80.32H71.5092C71.5092 76.8382 70.5263 73.7771 68.4573 71.5795C66.3789 69.3719 63.3216 68.16 59.4292 68.16V70.16ZM69.5092 80.32C69.5092 83.645 68.6875 87.7334 66.5238 90.9578C64.3948 94.1306 60.9388 96.52 55.4692 96.52V98.52C61.6397 98.52 65.7037 95.7694 68.1846 92.0722C70.6309 88.4266 71.5092 83.915 71.5092 80.32H69.5092ZM55.4692 96.52C51.8715 96.52 49.4417 95.4565 47.8986 93.7618C46.3406 92.0506 45.5492 89.5455 45.5492 86.4H43.5492C43.5492 89.8545 44.4178 92.9094 46.4198 95.1082C48.4368 97.3235 51.467 98.52 55.4692 98.52V96.52ZM45.5492 86.4C45.5492 83.1783 46.4706 79.0733 48.6779 75.8047C50.8571 72.5779 54.2839 70.16 59.4292 70.16V68.16C53.5346 68.16 49.5214 70.9821 47.0205 74.6853C44.5479 78.3467 43.5492 82.8617 43.5492 86.4H45.5492ZM58.9492 73.52C55.8768 73.52 53.9357 76.1156 52.8137 78.7593C51.6596 81.4785 51.1492 84.7239 51.1492 86.96H53.1492C53.1492 84.9561 53.6188 81.9815 54.6547 79.5407C55.7227 77.0244 57.1816 75.52 58.9492 75.52V73.52ZM51.1492 86.96C51.1492 88.7927 51.4809 90.3565 52.3165 91.4813C53.1941 92.6628 54.5045 93.2 56.0692 93.2V91.2C54.9939 91.2 54.3443 90.8572 53.922 90.2887C53.4575 89.6635 53.1492 88.6073 53.1492 86.96H51.1492ZM56.0692 93.2C59.2577 93.2 61.2036 90.4605 62.3053 87.7574C63.4404 84.9721 63.9092 81.7116 63.9092 79.68H61.9092C61.9092 81.4884 61.478 84.4879 60.4532 87.0026C59.3948 89.5995 57.9207 91.2 56.0692 91.2V93.2ZM63.9092 79.68C63.9092 77.8966 63.6376 76.3407 62.8159 75.219C61.9418 74.0258 60.6001 73.52 58.9492 73.52V75.52C60.1783 75.52 60.8166 75.8742 61.2025 76.401C61.6408 76.9993 61.9092 78.0234 61.9092 79.68H63.9092ZM80.6555 86.24V85.24H79.8422L79.6765 86.0362L80.6555 86.24ZM78.4155 97V98H79.2287L79.3945 97.2038L78.4155 97ZM71.2555 97L70.2772 96.7926L70.0213 98H71.2555V97ZM77.0555 69.64V68.64H76.2452L76.0772 69.4326L77.0555 69.64ZM91.4955 83.76L91.1684 82.815L89.1445 83.5156L90.981 84.6175L91.4955 83.76ZM93.3355 91.2L92.3564 90.9964L92.3564 90.9966L93.3355 91.2ZM92.4555 97V98H93.3787L93.4523 97.0797L92.4555 97ZM85.3755 97L84.3766 97.0476L84.422 98H85.3755V97ZM86.2555 90.8L85.2799 90.5801L85.2775 90.5912L86.2555 90.8ZM83.0955 74.76V73.76H82.2828L82.1166 74.5555L83.0955 74.76ZM81.7755 81.08L80.7966 80.8755L80.545 82.08H81.7755V81.08ZM83.6155 85.24H80.6555V87.24H83.6155V85.24ZM79.6765 86.0362L77.4365 96.7962L79.3945 97.2038L81.6345 86.4438L79.6765 86.0362ZM78.4155 96H71.2555V98H78.4155V96ZM72.2337 97.2074L78.0337 69.8474L76.0772 69.4326L70.2772 96.7926L72.2337 97.2074ZM77.0555 70.64H87.9355V68.64H77.0555V70.64ZM87.9355 70.64C90.7138 70.64 92.6609 71.3484 93.8959 72.3896C95.1148 73.4171 95.7355 74.8465 95.7355 76.52H97.7355C97.7355 74.3135 96.8962 72.3029 95.185 70.8604C93.49 69.4316 91.0371 68.64 87.9355 68.64V70.64ZM95.7355 76.52C95.7355 78.1809 95.2658 79.5037 94.4894 80.5247C93.7084 81.552 92.5751 82.3281 91.1684 82.815L91.8226 84.705C93.5359 84.1119 95.0225 83.128 96.0815 81.7352C97.1451 80.3363 97.7355 78.5791 97.7355 76.52H95.7355ZM90.981 84.6175C91.7633 85.0869 92.266 85.7232 92.513 86.6679C92.7723 87.6599 92.762 89.0459 92.3564 90.9964L94.3145 91.4036C94.749 89.3141 94.8186 87.5801 94.448 86.1621C94.0649 84.6968 93.2277 83.6331 92.01 82.9025L90.981 84.6175ZM92.3564 90.9966C91.7066 94.1236 91.5414 95.8855 91.4587 96.9203L93.4523 97.0797C93.5295 96.1145 93.6843 94.4364 94.3146 91.4034L92.3564 90.9966ZM92.4555 96H85.3755V98H92.4555V96ZM86.3743 96.9524C86.3409 96.2509 86.4755 94.5592 87.2334 91.0088L85.2775 90.5912C84.5155 94.1608 84.33 96.0691 84.3766 97.0476L86.3743 96.9524ZM87.231 91.0198C87.3965 90.2856 87.5185 89.5786 87.5452 88.9306C87.5718 88.2867 87.5079 87.6317 87.2416 87.0429C86.6447 85.723 85.3076 85.24 83.6155 85.24V87.24C85.0033 87.24 85.3062 87.617 85.4193 87.8671C85.5081 88.0633 85.5666 88.3708 85.5469 88.8482C85.5274 89.3214 85.4345 89.8944 85.2799 90.5802L87.231 91.0198ZM82.1166 74.5555L80.7966 80.8755L82.7543 81.2844L84.0743 74.9644L82.1166 74.5555ZM81.7755 82.08H84.9355V80.08H81.7755V82.08ZM84.9355 82.08C86.5104 82.08 87.852 81.7209 88.8102 80.8909C89.7927 80.0398 90.2155 78.8314 90.2155 77.48H88.2155C88.2155 78.4086 87.9382 79.0002 87.5007 79.3791C87.039 79.7791 86.2405 80.08 84.9355 80.08V82.08ZM90.2155 77.48C90.2155 76.1874 89.729 75.1914 88.8732 74.5533C88.0661 73.9515 87.0536 73.76 86.1355 73.76V75.76C86.8174 75.76 87.3448 75.9085 87.6777 76.1567C87.9619 76.3686 88.2155 76.7326 88.2155 77.48H90.2155ZM86.1355 73.76H83.0955V75.76H86.1355V73.76ZM96.3967 97L95.4187 96.7913L95.1607 98H96.3967V97ZM102.237 69.64V68.64H101.428L101.259 69.4313L102.237 69.64ZM109.597 69.64L110.575 69.8478L110.831 68.64H109.597V69.64ZM104.957 91.48L103.979 91.2722L103.722 92.48H104.957V91.48ZM116.197 91.48L117.143 91.8024L117.594 90.48H116.197V91.48ZM114.317 97V98H115.033L115.263 97.3224L114.317 97ZM97.3747 97.2087L103.215 69.8487L101.259 69.4313L95.4187 96.7913L97.3747 97.2087ZM102.237 70.64H109.597V68.64H102.237V70.64ZM108.619 69.4322L103.979 91.2722L105.935 91.6878L110.575 69.8478L108.619 69.4322ZM104.957 92.48H116.197V90.48H104.957V92.48ZM115.25 91.1576L113.37 96.6776L115.263 97.3224L117.143 91.8024L115.25 91.1576ZM114.317 96H96.3967V98H114.317V96ZM117.359 97L116.381 96.7913L116.123 98H117.359V97ZM123.199 69.64V68.64H122.39L122.221 69.4313L123.199 69.64ZM129.439 74.92V73.92H128.629L128.461 74.7132L129.439 74.92ZM125.879 91.76L124.901 91.5532L124.646 92.76H125.879V91.76ZM118.337 97.2087L124.177 69.8487L122.221 69.4313L116.381 96.7913L118.337 97.2087ZM123.199 70.64H132.839V68.64H123.199V70.64ZM132.839 70.64C136.428 70.64 138.995 71.8162 140.672 73.6206C142.359 75.4376 143.239 77.9954 143.239 80.92H145.239C145.239 77.6046 144.239 74.5224 142.137 72.2594C140.023 69.9838 136.89 68.64 132.839 68.64V70.64ZM143.239 80.92C143.239 84.9473 142.116 88.7248 139.857 91.4752C137.619 94.1985 134.201 96 129.399 96V98C134.758 98 138.759 95.9615 141.402 92.7448C144.022 89.5552 145.239 85.2927 145.239 80.92H143.239ZM129.399 96H117.359V98H129.399V96ZM128.461 74.7132L124.901 91.5532L126.858 91.9668L130.418 75.1268L128.461 74.7132ZM125.879 92.76H129.199V90.76H125.879V92.76ZM129.199 92.76C132.361 92.76 134.481 90.7703 135.758 88.3636C137.026 85.9717 137.559 83.022 137.559 80.64H135.559C135.559 82.778 135.072 85.3883 133.991 87.4264C132.918 89.4497 131.358 90.76 129.199 90.76V92.76ZM137.559 80.64C137.559 78.4444 137.01 76.7348 135.927 75.5692C134.834 74.3937 133.337 73.92 131.759 73.92V75.92C132.941 75.92 133.844 76.2663 134.462 76.9308C135.089 77.6052 135.559 78.7556 135.559 80.64H137.559ZM131.759 73.92H129.439V75.92H131.759V73.92ZM171.185 97V98H171.886L172.125 97.3412L171.185 97ZM152.545 97L151.561 96.8211L151.347 98H152.545V97ZM152.625 96.56L151.645 96.3614L151.643 96.3712L151.641 96.3811L152.625 96.56ZM163.305 82.88L163.856 83.7143L163.862 83.7105L163.305 82.88ZM162.145 78.64V79.64H162.902L163.107 78.9107L162.145 78.64ZM155.465 78.64L154.49 78.4166L154.21 79.64H155.465V78.64ZM168.505 86.48L167.975 85.632L167.971 85.6343L168.505 86.48ZM162.025 91.6L161.167 91.0855L160.259 92.6H162.025V91.6ZM173.145 91.6L174.085 91.9412L174.572 90.6H173.145V91.6ZM171.185 96H152.545V98H171.185V96ZM153.529 97.1789L153.609 96.7389L151.641 96.3811L151.561 96.8211L153.529 97.1789ZM153.605 96.7586C154.203 93.8072 155.082 91.6953 156.604 89.7703C158.148 87.8187 160.399 85.9995 163.856 83.7143L162.753 82.0457C159.251 84.3605 156.782 86.3213 155.035 88.5297C153.268 90.7647 152.287 93.1928 151.645 96.3614L153.605 96.7586ZM163.862 83.7105C167.139 81.5126 168.745 79.8481 168.745 77.36H166.745C166.745 78.7119 166.031 79.8474 162.748 82.0495L163.862 83.7105ZM168.745 77.36C168.745 76.3794 168.493 75.49 167.866 74.847C167.236 74.2002 166.38 73.96 165.505 73.96V75.96C166.03 75.96 166.294 76.0998 166.434 76.243C166.577 76.39 166.745 76.7006 166.745 77.36H168.745ZM165.505 73.96C164.386 73.96 163.445 74.343 162.703 75.1745C162.014 75.948 161.554 77.0477 161.182 78.3693L163.107 78.9107C163.456 77.6723 163.816 76.932 164.196 76.5055C164.525 76.137 164.904 75.96 165.505 75.96V73.96ZM162.145 77.64H155.465V79.64H162.145V77.64ZM156.44 78.8634C156.863 77.0147 157.58 75.0611 159.007 73.5719C160.402 72.1156 162.578 71 166.145 71V69C162.112 69 159.387 70.2844 157.563 72.1881C155.77 74.0589 154.946 76.4253 154.49 78.4166L156.44 78.8634ZM166.145 71C169.083 71 171.019 71.8656 172.218 73.0471C173.422 74.2343 173.985 75.8419 173.985 77.52H175.985C175.985 75.3981 175.268 73.2457 173.622 71.6229C171.97 69.9944 169.486 69 166.145 69V71ZM173.985 77.52C173.985 79.3045 173.543 80.6264 172.629 81.83C171.683 83.075 170.191 84.2468 167.975 85.632L169.035 87.328C171.299 85.9132 173.047 84.585 174.221 83.04C175.427 81.4536 175.985 79.6955 175.985 77.52H173.985ZM167.971 85.6343C166.288 86.6963 164.845 87.6468 163.711 88.5166C162.595 89.3728 161.689 90.2168 161.167 91.0855L162.882 92.1145C163.201 91.5832 163.855 90.9272 164.928 90.1034C165.985 89.2932 167.362 88.3837 169.038 87.3257L167.971 85.6343ZM162.025 92.6H173.145V90.6H162.025V92.6ZM172.205 91.2588L170.245 96.6588L172.125 97.3412L174.085 91.9412L172.205 91.2588ZM197.051 84.76L198.031 84.9624L198.031 84.9599L197.051 84.76ZM176.931 82.88L177.913 83.0734L177.913 83.0715L176.931 82.88ZM183.931 83.72L184.912 83.9161L184.913 83.9133L183.931 83.72ZM189.971 83.84L190.952 84.0361L190.953 84.0323L189.971 83.84ZM188.931 71C190.802 71 192.231 71.3903 193.31 72.0343C194.384 72.6748 195.172 73.602 195.712 74.7815C196.812 77.1822 196.875 80.6208 196.072 84.5601L198.031 84.9599C198.868 80.8592 198.891 76.9178 197.531 73.9485C196.841 72.443 195.794 71.1877 194.335 70.3169C192.882 69.4497 191.08 69 188.931 69V71ZM196.072 84.5576C195.468 87.4787 194.382 90.4905 192.601 92.751C190.847 94.9765 188.422 96.48 185.011 96.48V98.48C189.121 98.48 192.096 96.6235 194.172 93.989C196.22 91.3895 197.394 88.0413 198.031 84.9624L196.072 84.5576ZM185.011 96.48C183.151 96.48 181.729 96.1132 180.656 95.5003C179.591 94.8924 178.811 94.0099 178.276 92.8737C177.183 90.5548 177.106 87.1638 177.913 83.0734L175.95 82.6866C175.117 86.9162 175.1 90.8252 176.467 93.7263C177.161 95.2001 178.211 96.4076 179.664 97.2372C181.109 98.0618 182.892 98.48 185.011 98.48V96.48ZM177.913 83.0715C178.534 79.89 179.715 76.8422 181.532 74.6116C183.325 72.4096 185.735 71 188.931 71V69C185.048 69 182.097 70.7504 179.981 73.3484C177.888 75.9178 176.609 79.31 175.95 82.6885L177.913 83.0715ZM188.691 73.88C186.875 73.88 185.689 75.2358 184.887 76.8821C184.071 78.5573 183.472 80.8774 182.95 83.5267L184.913 83.9133C185.431 81.2826 185.991 79.1827 186.685 77.7579C187.394 76.3042 188.068 75.88 188.691 75.88V73.88ZM182.951 83.5239C182.372 86.4205 182.067 88.7945 182.274 90.477C182.378 91.3249 182.626 92.1257 183.154 92.7236C183.716 93.3608 184.481 93.64 185.331 93.64V91.64C184.942 91.64 184.767 91.5292 184.653 91.4002C184.504 91.2318 184.34 90.8901 184.259 90.233C184.096 88.9055 184.331 86.8195 184.912 83.9161L182.951 83.5239ZM185.331 93.64C186.894 93.64 188.011 92.5987 188.836 91.0307C189.657 89.4714 190.329 87.1522 190.952 84.0361L188.991 83.6439C188.374 86.7278 187.746 88.8085 187.066 90.0993C186.392 91.3813 185.809 91.64 185.331 91.64V93.64ZM190.953 84.0323C191.528 81.0941 191.883 78.7122 191.722 77.0438C191.64 76.2019 191.416 75.3933 190.887 74.7886C190.321 74.1431 189.544 73.88 188.691 73.88V75.88C189.119 75.88 189.286 75.9969 189.382 76.1064C189.514 76.2567 189.667 76.5781 189.731 77.2362C189.86 78.5678 189.574 80.6659 188.99 83.6477L190.953 84.0323ZM216.118 97V98H216.819L217.058 97.3412L216.118 97ZM197.478 97L196.494 96.8211L196.279 98H197.478V97ZM197.558 96.56L196.578 96.3614L196.576 96.3712L196.574 96.3811L197.558 96.56ZM208.238 82.88L208.789 83.7143L208.795 83.7105L208.238 82.88ZM207.078 78.64V79.64H207.835L208.04 78.9107L207.078 78.64ZM200.398 78.64L199.423 78.4166L199.143 79.64H200.398V78.64ZM213.438 86.48L212.908 85.632L212.904 85.6343L213.438 86.48ZM206.958 91.6L206.1 91.0855L205.191 92.6H206.958V91.6ZM218.078 91.6L219.018 91.9412L219.504 90.6H218.078V91.6ZM216.118 96H197.478V98H216.118V96ZM198.462 97.1789L198.542 96.7389L196.574 96.3811L196.494 96.8211L198.462 97.1789ZM198.538 96.7586C199.136 93.8072 200.015 91.6953 201.537 89.7703C203.08 87.8187 205.331 85.9995 208.789 83.7143L207.686 82.0457C204.184 84.3605 201.715 86.3213 199.968 88.5297C198.201 90.7647 197.22 93.1928 196.578 96.3614L198.538 96.7586ZM208.795 83.7105C212.072 81.5126 213.678 79.8481 213.678 77.36H211.678C211.678 78.7119 210.964 79.8474 207.681 82.0495L208.795 83.7105ZM213.678 77.36C213.678 76.3794 213.425 75.49 212.799 74.847C212.168 74.2002 211.313 73.96 210.438 73.96V75.96C210.963 75.96 211.227 76.0998 211.367 76.243C211.51 76.39 211.678 76.7006 211.678 77.36H213.678ZM210.438 73.96C209.319 73.96 208.378 74.343 207.636 75.1745C206.947 75.948 206.487 77.0477 206.115 78.3693L208.04 78.9107C208.389 77.6723 208.749 76.932 209.129 76.5055C209.458 76.137 209.837 75.96 210.438 75.96V73.96ZM207.078 77.64H200.398V79.64H207.078V77.64ZM201.372 78.8634C201.796 77.0147 202.512 75.0611 203.94 73.5719C205.335 72.1156 207.511 71 211.078 71V69C207.045 69 204.32 70.2844 202.496 72.1881C200.703 74.0589 199.879 76.4253 199.423 78.4166L201.372 78.8634ZM211.078 71C214.016 71 215.952 71.8656 217.151 73.0471C218.355 74.2343 218.918 75.8419 218.918 77.52H220.918C220.918 75.3981 220.201 73.2457 218.555 71.6229C216.903 69.9944 214.419 69 211.078 69V71ZM218.918 77.52C218.918 79.3045 218.476 80.6264 217.561 81.83C216.615 83.075 215.124 84.2468 212.908 85.632L213.968 87.328C216.231 85.9132 217.98 84.585 219.154 83.04C220.359 81.4536 220.918 79.6955 220.918 77.52H218.918ZM212.904 85.6343C211.221 86.6963 209.778 87.6468 208.644 88.5166C207.528 89.3728 206.621 90.2168 206.1 91.0855L207.815 92.1145C208.134 91.5832 208.787 90.9272 209.861 90.1034C210.918 89.2932 212.294 88.3837 213.971 87.3257L212.904 85.6343ZM206.958 92.6H218.078V90.6H206.958V92.6ZM217.138 91.2588L215.178 96.6588L217.058 97.3412L219.018 91.9412L217.138 91.2588ZM229.185 77.4V78.4H229.912L230.136 77.7091L229.185 77.4ZM222.745 77.4L221.767 77.1934L221.512 78.4H222.745V77.4ZM236.825 82.84L236.505 81.8926L235.825 82.1222V82.84H236.825ZM236.825 82.92H235.825V83.5465L236.389 83.8198L236.825 82.92ZM240.385 88.6L239.385 88.5881V88.6H240.385ZM220.105 89.4V88.4H219.154L219.106 89.3496L220.105 89.4ZM226.945 89.4H227.945V88.4H226.945V89.4ZM227.465 85.4L226.488 85.1856L226.222 86.4H227.465V85.4ZM228.545 80.48V79.48H227.741L227.568 80.2656L228.545 80.48ZM229.185 76.4H222.745V78.4H229.185V76.4ZM223.724 77.6066C224.072 75.9556 224.83 74.3193 226.205 73.0974C227.566 71.887 229.626 71 232.745 71V69C229.224 69 226.664 70.013 224.876 71.6026C223.1 73.1807 222.178 75.2444 221.767 77.1934L223.724 77.6066ZM232.745 71C235.794 71 237.739 71.8029 238.911 72.8582C240.078 73.9089 240.585 75.3044 240.585 76.72H242.585C242.585 74.8156 241.892 72.8511 240.249 71.3718C238.611 69.8971 236.137 69 232.745 69V71ZM240.585 76.72C240.585 78.0456 240.223 79.0894 239.575 79.9105C238.92 80.7411 237.913 81.4173 236.505 81.8926L237.145 83.7874C238.818 83.2227 240.191 82.3589 241.145 81.1495C242.107 79.9306 242.585 78.4344 242.585 76.72H240.585ZM235.825 82.84V82.92H237.825V82.84H235.825ZM236.389 83.8198C237.541 84.3786 239.419 85.7829 239.385 88.5881L241.385 88.6119C241.432 84.6971 238.749 82.7414 237.261 82.0202L236.389 83.8198ZM239.385 88.6C239.385 90.6741 238.639 92.6155 237.088 94.0446C235.534 95.4756 233.078 96.48 229.505 96.48V98.48C233.452 98.48 236.436 97.3644 238.443 95.5154C240.452 93.6645 241.385 91.1659 241.385 88.6H239.385ZM229.505 96.48C226.03 96.48 223.926 95.5059 222.707 94.2335C221.484 92.9553 221.014 91.2301 221.104 89.4504L219.106 89.3496C218.996 91.5299 219.566 93.8447 221.263 95.6165C222.965 97.3941 225.66 98.48 229.505 98.48V96.48ZM220.105 90.4H226.945V88.4H220.105V90.4ZM225.945 89.4C225.945 90.4507 226.154 91.528 226.758 92.3688C227.4 93.2617 228.398 93.76 229.665 93.76V91.76C228.973 91.76 228.61 91.5183 228.382 91.2012C228.117 90.832 227.945 90.2293 227.945 89.4H225.945ZM229.665 93.76C231.112 93.76 232.25 93.1215 232.994 92.0982C233.712 91.1102 234.025 89.8245 234.025 88.52H232.025C232.025 89.5355 231.778 90.3698 231.376 90.9218C231.001 91.4385 230.459 91.76 229.665 91.76V93.76ZM234.025 88.52C234.025 87.4402 233.773 86.3439 232.934 85.5353C232.106 84.7357 230.892 84.4 229.385 84.4V86.4C230.639 86.4 231.245 86.6843 231.546 86.9747C231.838 87.2561 232.025 87.7198 232.025 88.52H234.025ZM229.385 84.4H227.465V86.4H229.385V84.4ZM228.442 85.6144L229.522 80.6944L227.568 80.2656L226.488 85.1856L228.442 85.6144ZM228.545 81.48H230.345V79.48H228.545V81.48ZM230.345 81.48C231.931 81.48 233.219 81.0653 234.115 80.224C235.018 79.3762 235.385 78.2249 235.385 77.04H233.385C233.385 77.8151 233.153 78.3838 232.746 78.766C232.332 79.1547 231.599 79.48 230.345 79.48V81.48ZM235.385 77.04C235.385 76.2764 235.202 75.4379 234.648 74.7739C234.067 74.0788 233.201 73.72 232.145 73.72V75.72C232.729 75.72 232.983 75.9012 233.113 76.0561C233.268 76.2421 233.385 76.5636 233.385 77.04H235.385ZM232.145 73.72C231.045 73.72 230.168 74.0785 229.5 74.7605C228.876 75.399 228.508 76.2492 228.234 77.0909L230.136 77.7091C230.383 76.9508 230.635 76.461 230.93 76.1595C231.182 75.9015 231.525 75.72 232.145 75.72V73.72Z" fill="white"/>
          <mask id="path-8-inside-3_2_21" fill="white">
          <path d="M0 65H250V104H0V65Z"/>
          </mask>
          <path d="M250 103H0V105H250V103Z" fill="white" mask="url(#path-8-inside-3_2_21)"/>
          <path d="M44.3953 107.896C47.2913 107.896 48.5553 109.832 48.5553 112.264C48.5553 115.288 47.0193 119.16 42.8433 119.16C39.9953 119.16 38.7313 117.368 38.7313 114.76C38.7313 112.088 40.2673 107.896 44.3953 107.896ZM44.2033 109.624C41.9153 109.624 40.9873 112.728 40.9873 114.84C40.9873 116.568 41.7073 117.448 43.0513 117.448C45.4193 117.448 46.2993 114.296 46.2993 112.232C46.2993 110.568 45.6753 109.624 44.2033 109.624ZM54.2202 116.264H56.3162C55.8842 117.8 54.7482 119.16 52.3482 119.16C50.3482 119.16 49.3082 117.992 49.3082 115.96C49.3082 113.704 50.5722 110.568 53.7082 110.568C56.3322 110.568 56.8922 112.44 56.7322 113.656H54.6362C54.6842 112.952 54.5402 112.216 53.5802 112.216C52.0282 112.216 51.4842 114.696 51.4842 115.96C51.4842 117.064 51.9002 117.528 52.6202 117.528C53.5002 117.528 53.9002 117.016 54.2202 116.264ZM57.3986 112.36L57.7506 110.728H59.0306L59.5426 108.472H61.5586L61.0626 110.728H62.5666L62.1986 112.36H60.7106L59.7666 116.728C59.6386 117.288 59.7346 117.528 60.3906 117.528C60.6466 117.528 60.9346 117.48 61.1746 117.448L60.8546 118.888C60.4066 119.064 59.7666 119.096 59.4786 119.096C57.9266 119.096 57.3026 118.44 57.6386 116.872L58.6306 112.36H57.3986ZM66.6854 110.568C68.9094 110.568 69.9014 111.976 69.9014 113.8C69.9014 116.232 68.6214 119.16 65.3734 119.16C63.0694 119.16 62.1094 117.752 62.1094 115.832C62.1094 113.704 63.3734 110.568 66.6854 110.568ZM66.4774 112.264C64.9254 112.264 64.3014 114.408 64.3014 115.832C64.3014 116.888 64.6694 117.48 65.5654 117.48C67.1654 117.48 67.7734 115.144 67.7734 113.816C67.7734 112.744 67.3734 112.264 66.4774 112.264ZM70.8282 116.488L72.7642 107.368H74.8762L73.9642 111.688C74.3802 111.144 75.0202 110.568 76.3322 110.568C77.9322 110.568 78.7802 111.848 78.7802 113.432C78.7802 115.848 77.5962 119.144 74.5402 119.144C73.2922 119.144 72.7962 118.6 72.5722 118.104C72.5242 118.344 72.4282 118.776 72.3482 119H70.2682C70.3802 118.472 70.6522 117.32 70.8282 116.488ZM74.3002 117.464C75.9322 117.464 76.5882 115.128 76.5882 113.864C76.5882 112.808 76.1722 112.28 75.3082 112.28C74.0602 112.28 73.4362 113.592 73.1642 114.872C72.8442 116.376 73.0042 117.464 74.3002 117.464ZM86.7048 115.352H81.6488C81.6168 115.496 81.5688 115.72 81.5688 115.992C81.5688 116.776 81.8408 117.512 82.8008 117.512C83.7768 117.512 84.0808 116.92 84.3368 116.456H86.4488C85.8728 118.008 84.8328 119.16 82.6408 119.16C80.3848 119.16 79.4888 117.832 79.4888 115.832C79.4888 113.928 80.5928 110.568 83.9208 110.568C86.0168 110.568 86.9768 111.896 86.9768 113.512C86.9768 113.976 86.9128 114.536 86.7048 115.352ZM81.9528 113.992H84.8968C84.9448 113.8 84.9608 113.608 84.9608 113.416C84.9608 112.712 84.6568 112.136 83.7448 112.136C82.6408 112.136 82.1448 113.224 81.9528 113.992ZM87.3202 119L88.4722 113.528C88.7602 112.168 88.9362 111.32 89.0322 110.728H91.0802C91.0642 110.984 90.9362 111.688 90.8242 112.232C91.3682 111.272 92.1522 110.6 93.6082 110.6L93.1442 112.76C91.4962 112.744 90.6002 113.448 90.2162 115.256L89.4322 119H87.3202ZM105.01 110.888H102.994C102.93 110.312 102.658 109.816 101.762 109.816C100.578 109.816 99.8736 111.128 99.5376 112.696C100.082 112.2 100.706 111.88 101.666 111.88C103.33 111.88 104.45 113.064 104.45 114.872C104.45 116.92 103.202 119.16 100.322 119.16C98.3856 119.16 97.0416 117.976 97.0416 115.4C97.0416 113.16 98.0176 108.232 101.906 108.232C104.13 108.232 104.994 109.544 105.01 110.888ZM100.498 117.56C101.778 117.56 102.306 116.232 102.306 115.128C102.306 114.056 101.858 113.496 100.946 113.496C99.6336 113.496 99.1376 114.648 99.1376 115.832C99.1376 116.888 99.6176 117.56 100.498 117.56ZM117.094 112.456H119.398L116.278 116.296C114.774 118.136 113.91 119.16 111.686 119.16C109.91 119.16 108.614 118.04 108.614 116.328C108.614 114.664 109.574 113.64 112.086 112.504C113.734 111.768 114.406 111.336 114.406 110.44C114.406 109.976 114.198 109.448 113.414 109.448C112.758 109.448 112.358 109.992 112.358 110.76C112.358 111.176 112.598 111.704 113.078 112.312L118.646 119H116.118L111.286 113.192C110.774 112.472 110.438 111.736 110.438 110.968C110.438 109.432 111.462 107.896 113.574 107.896C115.462 107.896 116.262 109.256 116.262 110.36C116.262 111.848 115.446 112.648 113.014 113.688C111.142 114.52 110.774 115.128 110.774 115.992C110.774 116.6 111.254 117.272 112.086 117.272C113.062 117.272 113.606 117 115.062 115.08L117.094 112.456ZM124.255 108.392H131.215L130.863 110.072C129.151 112.04 126.959 115.416 125.551 119H123.279C124.559 115.576 127.135 111.816 128.703 110.152H123.871L124.255 108.392ZM140.238 116.344H136.75L135.438 119H133.198C134.91 115.608 136.622 112.216 138.766 108.04H141.566L142.654 119H140.51L140.238 116.344ZM137.534 114.552H140.206C140.03 112.328 139.854 110.728 139.838 109.72H139.822C139.294 110.92 138.494 112.68 137.534 114.552ZM143.707 119L144.907 113.288C145.259 111.656 145.355 111.112 145.419 110.728H147.467C147.435 111 147.371 111.496 147.307 111.752C147.883 111.048 148.555 110.568 149.643 110.568C150.763 110.568 151.195 111.192 151.339 111.784C151.851 111.144 152.635 110.568 153.819 110.568C155.259 110.568 156.331 111.336 155.835 113.672L154.699 119H152.651L153.771 113.688C153.931 112.952 153.819 112.296 152.955 112.296C151.963 112.296 151.515 113.016 151.259 114.248L150.251 119H148.187L149.291 113.736C149.451 112.952 149.307 112.296 148.475 112.296C147.563 112.296 147.083 112.952 146.763 114.408L145.787 119H143.707ZM156.295 116.408H158.407C158.439 117.272 158.935 117.64 159.639 117.64C160.327 117.64 160.743 117.336 160.743 116.744C160.743 116.232 160.311 115.944 159.367 115.528C157.847 114.888 157.143 114.312 157.143 113.112C157.143 111.64 158.263 110.568 160.311 110.568C162.503 110.568 163.399 111.864 163.335 113.176H161.303C161.271 112.536 160.983 112.12 160.183 112.12C159.735 112.12 159.255 112.312 159.255 112.888C159.255 113.32 159.575 113.48 160.503 113.88C162.071 114.536 162.919 115.144 162.919 116.456C162.919 117.88 161.911 119.144 159.495 119.144C157.415 119.144 156.263 118.136 156.295 116.408ZM163.924 112.36L164.276 110.728H165.556L166.068 108.472H168.084L167.588 110.728H169.092L168.724 112.36H167.236L166.292 116.728C166.164 117.288 166.26 117.528 166.916 117.528C167.172 117.528 167.46 117.48 167.7 117.448L167.38 118.888C166.932 119.064 166.292 119.096 166.004 119.096C164.452 119.096 163.828 118.44 164.164 116.872L165.156 112.36H163.924ZM175.85 115.352H170.794C170.762 115.496 170.714 115.72 170.714 115.992C170.714 116.776 170.986 117.512 171.946 117.512C172.922 117.512 173.226 116.92 173.482 116.456H175.594C175.018 118.008 173.978 119.16 171.786 119.16C169.53 119.16 168.634 117.832 168.634 115.832C168.634 113.928 169.738 110.568 173.066 110.568C175.162 110.568 176.122 111.896 176.122 113.512C176.122 113.976 176.058 114.536 175.85 115.352ZM171.098 113.992H174.042C174.09 113.8 174.106 113.608 174.106 113.416C174.106 112.712 173.802 112.136 172.89 112.136C171.786 112.136 171.29 113.224 171.098 113.992ZM176.466 119L177.618 113.528C177.906 112.168 178.082 111.32 178.178 110.728H180.226C180.21 110.984 180.082 111.688 179.97 112.232C180.514 111.272 181.298 110.6 182.754 110.6L182.29 112.76C180.642 112.744 179.746 113.448 179.362 115.256L178.578 119H176.466ZM189.649 107.368H191.761L189.793 116.696C189.569 117.672 189.409 118.536 189.313 119H187.265C187.281 118.824 187.345 118.392 187.409 118.104C186.881 118.808 186.257 119.16 185.089 119.16C183.537 119.16 182.561 118.056 182.561 115.992C182.561 113.608 183.969 110.568 186.737 110.568C187.969 110.568 188.577 111.112 188.769 111.528L189.649 107.368ZM187.057 112.28C185.489 112.28 184.801 114.44 184.801 115.8C184.801 116.952 185.233 117.512 186.017 117.512C187.361 117.512 187.857 116.248 188.145 114.856C188.465 113.272 188.353 112.28 187.057 112.28ZM198.505 113.912L197.833 117.032C197.673 117.848 197.513 118.632 197.449 119H195.401C195.433 118.776 195.465 118.552 195.529 118.184C195.017 118.84 194.345 119.144 193.289 119.144C191.897 119.144 191.065 118.264 191.065 116.936C191.065 115.064 192.441 114.072 194.745 113.88C195.305 113.832 195.721 113.8 196.441 113.8L196.489 113.56C196.697 112.696 196.553 112.04 195.465 112.04C194.505 112.04 194.249 112.648 194.105 113.08H192.025C192.313 111.8 193.129 110.568 195.625 110.568C197.737 110.568 199.033 111.464 198.505 113.912ZM196.121 115.384L196.169 115.208C195.705 115.208 195.305 115.208 194.857 115.272C194.009 115.368 193.241 115.704 193.241 116.632C193.241 117.16 193.513 117.544 194.217 117.544C195.529 117.544 195.897 116.472 196.121 115.384ZM199.246 119L200.446 113.288C200.798 111.656 200.894 111.112 200.958 110.728H203.006C202.974 111 202.91 111.496 202.846 111.752C203.422 111.048 204.094 110.568 205.182 110.568C206.302 110.568 206.734 111.192 206.878 111.784C207.39 111.144 208.174 110.568 209.358 110.568C210.798 110.568 211.87 111.336 211.374 113.672L210.238 119H208.19L209.31 113.688C209.47 112.952 209.358 112.296 208.494 112.296C207.502 112.296 207.054 113.016 206.798 114.248L205.79 119H203.726L204.83 113.736C204.99 112.952 204.846 112.296 204.014 112.296C203.102 112.296 202.622 112.952 202.302 114.408L201.326 119H199.246Z" fill="white"/>
          </svg>
