<svg class=""  viewBox="0 0 500 60" fill="#CC0000" stroke="#CC0000" xmlns="http://www.w3.org/2000/svg">
    
  <polygon class="cls-1" points="107.446 13.8 97.524 13.8 97.524 48.718 120.931 48.718 120.931 39.722 107.446 39.722 107.446 13.8" style="fill: rgb(204, 0, 0);" transform="matrix(1, 0, 0, 1, 2.842170943040401e-14, 1.4210854715202004e-14)"/>
  <rect class="cls-1" x="81.952" y="13.796" width="9.96" height="34.918" style="fill: rgb(204, 0, 0);" transform="matrix(1, 0, 0, 1, 2.842170943040401e-14, 1.4210854715202004e-14)"/>
  <path class="cls-1" d="M 149.491 35.405 C 149.482 34.244 149.187 33.123 148.656 32.088 C 146.976 28.809 144.248 27.083 140.6 26.929 C 137.999 26.819 132.285 26.901 132.285 26.901 L 132.265 22.718 L 148.215 22.725 L 148.215 13.745 C 148.215 13.745 138.074 13.753 133.257 13.745 C 131.635 13.745 130.104 14.096 128.688 14.874 C 125.803 16.457 124.032 18.837 123.761 22.163 C 123.635 23.714 123.678 25.279 123.718 26.838 C 123.749 28.065 124.051 29.255 124.65 30.333 C 126.484 33.646 129.365 35.267 133.104 35.37 C 135.417 35.433 140.514 35.382 140.514 35.382 L 140.514 39.722 L 124.198 39.722 L 124.198 48.718 C 124.198 48.718 135.024 48.726 140.238 48.706 C 140.907 48.706 141.588 48.617 142.241 48.47 C 146.113 47.629 148.896 44.732 149.38 40.825 C 149.6 39.038 149.502 37.212 149.491 35.401" style="fill: rgb(204, 0, 0);" transform="matrix(1, 0, 0, 1, 2.842170943040401e-14, 1.4210854715202004e-14)"/>
  <path class="cls-1" d="M 66.978 32.564 L 57.907 32.564 L 57.907 24.331 C 57.907 23.112 58.895 22.124 60.115 22.124 L 64.771 22.124 C 65.991 22.124 66.978 23.112 66.978 24.331 L 66.978 32.564 Z M 75.156 18.232 C 73.29 15.225 70.437 13.906 67.021 13.796 C 63.889 13.694 60.748 13.773 57.612 13.776 C 56.522 13.776 55.448 13.914 54.412 14.269 C 50.938 15.461 48.333 19.157 48.328 22.946 C 48.317 31.411 48.328 48.714 48.328 48.714 L 57.943 48.714 L 57.943 39.718 L 67.018 39.718 L 67.018 48.706 L 76.344 48.706 C 76.344 48.706 76.344 26.992 76.344 23.052 C 76.344 21.344 76.065 19.695 75.156 18.227" style="fill: rgb(204, 0, 0);" transform="matrix(1, 0, 0, 1, 2.842170943040401e-14, 1.4210854715202004e-14)"/>
  <path class="cls-1" d="M 33.611 28.794 C 33.611 29.975 32.654 30.93 31.474 30.93 L 23.846 30.93 L 23.846 21.86 L 31.474 21.86 C 32.654 21.86 33.611 22.816 33.611 23.997 L 33.611 28.798 L 33.611 28.794 Z M 42.437 32.079 C 43.7 29.392 43.929 26.538 43.559 23.627 C 43.028 19.47 40.852 16.48 37.065 14.686 C 35.436 13.914 33.736 13.497 31.898 13.51 C 26.208 13.553 14.371 13.525 14.371 13.525 L 14.371 48.71 L 23.836 48.71 L 23.836 39.718 L 32.045 48.714 L 46.034 48.714 C 46.034 48.714 35.047 37.656 35.102 37.644 C 38.376 36.995 41.017 35.09 42.433 32.076" style="fill: rgb(204, 0, 0);" transform="matrix(1, 0, 0, 1, 2.842170943040401e-14, 1.4210854715202004e-14)"/>
  <path class="cls-2" d="M 452.073 24.008 C 452.991 19.381 456.449 13.883 466.674 13.883 C 475.068 13.883 479.696 17.09 479.696 22.431 C 479.696 27.161 476.032 29.144 472.675 30.01 L 472.675 30.112 C 474.658 30.722 478.066 32.859 478.066 37.385 C 478.066 44 473.131 48.935 462.498 48.935 C 451.255 48.935 448.61 43.795 448.862 38.301 L 460.511 38.301 C 460.408 40.135 460.613 42.118 462.242 42.118 C 464.072 42.118 464.938 39.168 464.938 36.779 C 464.938 34.949 464.225 33.827 461.377 33.827 L 458.732 33.827 L 460.361 26.499 L 462.805 26.499 C 466.721 26.499 467.284 24.261 467.284 22.533 C 467.284 21.462 466.878 20.75 465.808 20.75 C 464.485 20.75 463.773 21.718 463.112 24.005 L 452.073 24.005 L 452.073 24.008 Z M 415.601 48.226 L 415.908 46.802 C 417.639 38.714 420.894 34.744 428.371 30.219 C 433.562 27.062 435.392 26.099 435.392 23.095 C 435.392 22.024 434.936 21.317 433.967 21.317 C 432.44 21.317 431.676 22.741 430.965 25.945 L 419.619 25.945 C 420.587 20.754 423.436 13.938 434.828 13.938 C 443.782 13.938 447.902 18.058 447.902 23.757 C 447.902 29.096 445.663 31.592 439.052 35.05 C 437.118 36.07 433.353 38.156 432.44 39.581 L 446.024 39.581 L 442.821 48.23 L 415.605 48.23 L 415.601 48.226 Z M 397.9 31.131 C 396.271 38.711 396.121 41.509 397.798 41.509 C 399.474 41.509 400.442 38.558 401.97 31.285 C 403.546 23.906 404.003 21.211 402.071 21.211 C 400.748 21.211 399.631 22.789 397.9 31.131 Z M 415.502 26.551 C 415.502 34.335 412.044 48.935 397.443 48.935 C 387.88 48.935 384.37 43.441 384.37 35.96 C 384.37 27.109 388.998 13.832 402.279 13.832 C 411.284 13.832 415.506 18.869 415.506 26.551 L 415.502 26.551 Z M 349.928 48.223 L 350.231 46.798 C 351.963 38.711 355.217 34.741 362.694 30.215 C 367.885 27.059 369.715 26.095 369.715 23.091 C 369.715 22.021 369.259 21.313 368.29 21.313 C 366.763 21.313 366 22.738 365.288 25.941 L 353.942 25.941 C 354.91 20.75 357.759 13.934 369.153 13.934 C 378.105 13.934 382.225 18.054 382.225 23.753 C 382.225 29.092 379.986 31.588 373.374 35.046 C 371.443 36.066 367.676 38.152 366.763 39.577 L 380.348 39.577 L 377.145 48.226 L 349.928 48.226 L 349.928 48.223 Z M 317.942 39.946 L 320.602 39.946 C 325.281 39.946 326.906 31.328 326.906 27.385 C 326.906 24.135 326.068 22.509 323.31 22.509 L 321.684 22.509 L 317.942 39.946 Z M 310.453 14.233 L 324.887 14.233 C 335.332 14.233 340.357 20.341 340.357 28.519 C 340.357 36.251 336.713 48.223 319.618 48.223 L 303.263 48.223 L 310.457 14.233 L 310.453 14.233 Z M 280.261 14.233 L 293.268 14.233 L 287.9 39.6 L 302.087 39.6 L 298.883 48.219 L 273.071 48.219 L 280.266 14.23 L 280.261 14.233 Z M 254.551 28.322 L 256.768 28.322 C 259.329 28.322 260.903 27.043 260.903 24.579 C 260.903 23.151 260.215 21.919 258.145 21.919 L 255.878 21.919 L 254.547 28.322 L 254.551 28.322 Z M 252.827 36.007 L 250.317 48.223 L 237.559 48.223 L 244.749 14.233 L 261.792 14.233 C 270.41 14.233 273.81 18.369 273.81 22.95 C 273.81 27.531 271.052 30.781 266.569 32.111 C 269.474 33.193 270.903 36.149 269.82 41.225 C 269.23 43.937 268.687 47.038 268.687 48.219 L 256.421 48.219 C 256.224 46.79 256.519 44.425 257.358 40.435 C 257.948 37.676 257.948 36 254.65 36 L 252.827 36 L 252.827 36.007 Z M 214.655 35.857 C 214.655 38.223 215.199 40.635 217.906 40.635 C 222.88 40.635 224.308 29.946 224.308 26.646 C 224.308 24.529 223.915 21.816 221.105 21.816 C 216.276 21.816 214.651 32.163 214.651 35.854 L 214.655 35.857 Z M 237.315 28.125 C 237.315 37.581 232.242 49.108 216.773 49.108 C 205.443 49.108 201.353 42.162 201.353 34.823 C 201.353 24.477 207.611 13.343 221.6 13.343 C 232.439 13.343 237.315 19.994 237.315 28.121 L 237.315 28.125 Z M 156.585 48.223 L 156.538 14.233 L 169.643 14.233 C 168.856 20.786 167.82 28.962 166.936 35.314 L 167.23 35.314 C 170.435 26.398 171.91 22.308 174.669 14.233 L 186.246 14.233 C 185.754 22.214 185.557 26.499 184.916 34.874 L 185.21 34.921 C 186.687 29.356 189.398 20.093 191.121 14.233 L 203.534 14.233 L 188.855 48.223 L 175.652 48.223 C 175.947 41.919 176.636 36.106 177.08 28.813 L 176.884 28.813 C 174.669 35.413 172.008 42.41 169.788 48.223 L 156.585 48.223 Z" style="fill: none; stroke: rgb(204, 0, 0); stroke-miterlimit: 10; stroke-width: 2.5px;" transform="matrix(1, 0, 0, 1, 2.842170943040401e-14, 1.4210854715202004e-14)"/>
</svg>